<svg width="366" height="32" viewBox="0 0 366 32" fill="none" xmlns="http://www.w3.org/2000/svg">
<path fill-rule="evenodd" clip-rule="evenodd" d="M170.43 19.4023V0.89209C173.561 3.22684 178.034 4.68798 183.002 4.68798C187.968 4.68798 192.442 3.22696 195.573 0.892357V18.816L195.573 18.9022L195.573 18.9885V19.4023H195.563C195.301 26.1135 189.777 31.4737 183.002 31.4737C176.226 31.4737 170.702 26.1135 170.44 19.4023H170.43ZM177.234 18.4023C179.758 18.4023 181.805 16.3556 181.805 13.8308C181.805 11.3061 179.758 9.25942 177.234 9.25942C174.709 9.25942 172.662 11.3061 172.662 13.8308C172.662 16.3556 174.709 18.4023 177.234 18.4023ZM177.234 17.188C179.088 17.188 180.592 15.6849 180.592 13.8308C180.592 11.9767 179.088 10.4737 177.234 10.4737C175.38 10.4737 173.877 11.9767 173.877 13.8308C173.877 15.6849 175.38 17.188 177.234 17.188ZM179.199 13.8308C179.199 14.9157 178.319 15.7951 177.235 15.7951C176.15 15.7951 175.27 14.9157 175.27 13.8308C175.27 12.746 176.15 11.8665 177.235 11.8665C178.319 11.8665 179.199 12.746 179.199 13.8308ZM188.77 18.4023C191.294 18.4023 193.341 16.3556 193.341 13.8308C193.341 11.3061 191.294 9.25942 188.77 9.25942C186.245 9.25942 184.198 11.3061 184.198 13.8308C184.198 16.3556 186.245 18.4023 188.77 18.4023ZM188.768 17.188C190.622 17.188 192.125 15.6849 192.125 13.8308C192.125 11.9767 190.622 10.4737 188.768 10.4737C186.914 10.4737 185.411 11.9767 185.411 13.8308C185.411 15.6849 186.914 17.188 188.768 17.188ZM190.734 13.8308C190.734 14.9157 189.854 15.7951 188.77 15.7951C187.685 15.7951 186.805 14.9157 186.805 13.8308C186.805 12.746 187.685 11.8665 188.77 11.8665C189.854 11.8665 190.734 12.746 190.734 13.8308ZM183.001 17.0808L184.424 19.5451H181.579L183.001 17.0808ZM196.64 19.0094C196.615 21.9756 195.563 24.6969 193.822 26.8348C194.028 26.9226 194.244 26.985 194.469 27.0194C196.57 27.3403 198.654 25.103 199.125 22.0223C199.56 19.1763 198.465 16.6061 196.64 15.9779V18.7954C196.64 18.831 196.64 18.8667 196.64 18.9023C196.64 18.938 196.64 18.9737 196.64 19.0093V19.0094ZM172.175 26.8339C170.436 24.6961 169.385 21.9752 169.36 19.0094H169.36V18.9622L169.36 18.9022L169.36 18.8421V15.977C167.535 16.6039 166.44 19.175 166.874 22.0222C167.345 25.1029 169.428 27.3401 171.527 27.0192C171.752 26.9847 171.969 26.9221 172.175 26.8339Z" fill="white"/>
<rect x="0.5" y="15.1829" width="150" height="2" fill="white"/>
<rect x="215.498" y="15.1829" width="150" height="2" fill="white"/>
</svg>
