<svg width="151" height="56" viewBox="0 0 151 56" fill="none" xmlns="http://www.w3.org/2000/svg">
<g clip-path="url(#clip0)">
<path d="M22.9983 19.1983C22.2941 18.809 21.4673 18.818 20.7676 19.2039L28.9684 26.7691L31.7234 24.0141L22.9983 19.1983Z" fill="#BDBDBD"/>
<path d="M19.9478 19.9778C19.7476 20.3051 19.6328 20.6797 19.6328 21.0769V34.7404C19.6328 35.1251 19.7374 35.4919 19.9264 35.8125L28.1734 27.5655L19.9478 19.9778Z" fill="#BDBDBD"/>
<path d="M35.3767 26.03L32.7489 24.58L29.7959 27.5318L33.4148 30.8695L35.3779 29.7862C36.0843 29.3947 36.5073 28.6927 36.5073 27.9075C36.5062 27.1223 36.0843 26.4204 35.3767 26.03Z" fill="#BDBDBD"/>
<path d="M28.9999 28.3282L20.7305 36.5977C21.0893 36.8024 21.4831 36.9104 21.879 36.9104C22.2615 36.9104 22.6462 36.8137 22.9984 36.6191L32.377 31.4432L28.9999 28.3282Z" fill="#BDBDBD"/>
<path d="M56.2256 32.4182C55.8402 32.9703 55.3011 33.3844 54.6084 33.6604C53.9209 33.9312 53.1188 34.0667 52.2021 34.0667C51.2751 34.0667 50.4521 33.8505 49.7334 33.4182C49.0146 32.9807 48.4574 32.3609 48.0615 31.5588C47.6709 30.7568 47.4704 29.8271 47.46 28.7698V27.7776C47.46 26.064 47.8584 24.7359 48.6553 23.7932C49.4574 22.8505 50.5824 22.3792 52.0303 22.3792C53.2178 22.3792 54.1735 22.6838 54.8975 23.2932C55.6214 23.8974 56.0641 24.7568 56.2256 25.8713H54.7256C54.4443 24.3661 53.5485 23.6135 52.0381 23.6135C51.0329 23.6135 50.2699 23.9677 49.749 24.676C49.2334 25.3792 48.973 26.4 48.9678 27.7385V28.6682C48.9678 29.9443 49.2594 30.9599 49.8428 31.7151C50.4261 32.4651 51.2152 32.8401 52.21 32.8401C52.7725 32.8401 53.2646 32.7776 53.6865 32.6526C54.1084 32.5276 54.4574 32.3167 54.7334 32.0198V29.4651H52.1006V28.2463H56.2256V32.4182ZM58.124 29.6057C58.124 28.7776 58.2855 28.0328 58.6084 27.3713C58.9365 26.7099 59.3896 26.1995 59.9678 25.8401C60.5511 25.4807 61.2152 25.301 61.96 25.301C63.111 25.301 64.0407 25.6995 64.749 26.4963C65.4626 27.2932 65.8193 28.3531 65.8193 29.676V29.7776C65.8193 30.6005 65.6605 31.3401 65.3428 31.9963C65.0303 32.6474 64.5798 33.1552 63.9912 33.5198C63.4079 33.8844 62.736 34.0667 61.9756 34.0667C60.8298 34.0667 59.9001 33.6682 59.1865 32.8713C58.4782 32.0745 58.124 31.0198 58.124 29.7073V29.6057ZM59.5771 29.7776C59.5771 30.7151 59.7933 31.4677 60.2256 32.0354C60.6631 32.6031 61.2464 32.887 61.9756 32.887C62.71 32.887 63.2933 32.6005 63.7256 32.0276C64.1579 31.4495 64.374 30.6422 64.374 29.6057C64.374 28.6786 64.1527 27.9286 63.71 27.3557C63.2725 26.7776 62.6891 26.4885 61.96 26.4885C61.2464 26.4885 60.6709 26.7724 60.2334 27.3401C59.7959 27.9078 59.5771 28.7203 59.5771 29.7776ZM67.249 29.6057C67.249 28.7776 67.4105 28.0328 67.7334 27.3713C68.0615 26.7099 68.5146 26.1995 69.0928 25.8401C69.6761 25.4807 70.3402 25.301 71.085 25.301C72.236 25.301 73.1657 25.6995 73.874 26.4963C74.5876 27.2932 74.9443 28.3531 74.9443 29.676V29.7776C74.9443 30.6005 74.7855 31.3401 74.4678 31.9963C74.1553 32.6474 73.7048 33.1552 73.1162 33.5198C72.5329 33.8844 71.861 34.0667 71.1006 34.0667C69.9548 34.0667 69.0251 33.6682 68.3115 32.8713C67.6032 32.0745 67.249 31.0198 67.249 29.7073V29.6057ZM68.7021 29.7776C68.7021 30.7151 68.9183 31.4677 69.3506 32.0354C69.7881 32.6031 70.3714 32.887 71.1006 32.887C71.835 32.887 72.4183 32.6005 72.8506 32.0276C73.2829 31.4495 73.499 30.6422 73.499 29.6057C73.499 28.6786 73.2777 27.9286 72.835 27.3557C72.3975 26.7776 71.8141 26.4885 71.085 26.4885C70.3714 26.4885 69.7959 26.7724 69.3584 27.3401C68.9209 27.9078 68.7021 28.7203 68.7021 29.7776ZM76.4131 29.6135C76.4131 28.2958 76.7178 27.2489 77.3271 26.4729C77.9365 25.6917 78.7438 25.301 79.749 25.301C80.7803 25.301 81.585 25.6656 82.1631 26.3948L82.2334 25.4573H83.5537V33.7073C83.5537 34.801 83.2282 35.663 82.5771 36.2932C81.9313 36.9234 81.0615 37.2385 79.9678 37.2385C79.3584 37.2385 78.762 37.1083 78.1787 36.8479C77.5954 36.5875 77.1501 36.2307 76.8428 35.7776L77.5928 34.9104C78.2126 35.676 78.9704 36.0588 79.8662 36.0588C80.5693 36.0588 81.1162 35.8609 81.5068 35.4651C81.9027 35.0693 82.1006 34.512 82.1006 33.7932V33.0667C81.5225 33.7333 80.7334 34.0667 79.7334 34.0667C78.7438 34.0667 77.9417 33.6682 77.3271 32.8713C76.7178 32.0745 76.4131 30.9885 76.4131 29.6135ZM77.8662 29.7776C77.8662 30.7307 78.0615 31.4807 78.4521 32.0276C78.8428 32.5693 79.3896 32.8401 80.0928 32.8401C81.0042 32.8401 81.6735 32.426 82.1006 31.5979V27.7385C81.6579 26.9312 80.9938 26.5276 80.1084 26.5276C79.4053 26.5276 78.8558 26.801 78.46 27.3479C78.0641 27.8948 77.8662 28.7047 77.8662 29.7776ZM87.3115 33.9104H85.8662V21.9104H87.3115V33.9104ZM93.1396 34.0667C91.9938 34.0667 91.0615 33.6917 90.3428 32.9417C89.624 32.1864 89.2646 31.1786 89.2646 29.9182V29.6526C89.2646 28.814 89.4235 28.0667 89.7412 27.4104C90.0641 26.7489 90.512 26.2333 91.085 25.8635C91.6631 25.4885 92.2881 25.301 92.96 25.301C94.0589 25.301 94.9131 25.663 95.5225 26.387C96.1318 27.1109 96.4365 28.1474 96.4365 29.4963V30.0979H90.71C90.7308 30.9312 90.973 31.6057 91.4365 32.1213C91.9053 32.6318 92.499 32.887 93.2178 32.887C93.7282 32.887 94.1605 32.7828 94.5146 32.5745C94.8688 32.3661 95.1787 32.0901 95.4443 31.7463L96.3271 32.4338C95.6188 33.5224 94.5563 34.0667 93.1396 34.0667ZM92.96 26.4885C92.3766 26.4885 91.887 26.7021 91.4912 27.1292C91.0954 27.551 90.8506 28.1448 90.7568 28.9104H94.9912V28.801C94.9495 28.0667 94.7516 27.4989 94.3975 27.0979C94.0433 26.6917 93.5641 26.4885 92.96 26.4885ZM103.812 29.4573V33.9104H102.312V22.5354H106.507C107.752 22.5354 108.726 22.8531 109.429 23.4885C110.137 24.1239 110.491 24.9651 110.491 26.012C110.491 27.1161 110.145 27.9677 109.452 28.5667C108.765 29.1604 107.778 29.4573 106.491 29.4573H103.812ZM103.812 28.2307H106.507C107.309 28.2307 107.924 28.0432 108.351 27.6682C108.778 27.288 108.991 26.7411 108.991 26.0276C108.991 25.3505 108.778 24.8088 108.351 24.4026C107.924 23.9963 107.338 23.7854 106.593 23.7698H103.812V28.2307ZM113.749 33.9104H112.304V21.9104H113.749V33.9104ZM121.288 33.9104C121.205 33.7437 121.137 33.4469 121.085 33.0198C120.413 33.7177 119.611 34.0667 118.679 34.0667C117.845 34.0667 117.16 33.8323 116.624 33.3635C116.093 32.8896 115.827 32.2906 115.827 31.5667C115.827 30.6864 116.16 30.0042 116.827 29.5198C117.499 29.0302 118.442 28.7854 119.655 28.7854H121.062V28.1213C121.062 27.6161 120.91 27.2151 120.608 26.9182C120.306 26.6161 119.861 26.4651 119.272 26.4651C118.757 26.4651 118.325 26.5953 117.976 26.8557C117.627 27.1161 117.452 27.4312 117.452 27.801H115.999C115.999 27.3792 116.147 26.9729 116.444 26.5823C116.746 26.1864 117.153 25.8739 117.663 25.6448C118.179 25.4156 118.744 25.301 119.358 25.301C120.332 25.301 121.095 25.5458 121.647 26.0354C122.2 26.5198 122.486 27.189 122.507 28.0432V31.9338C122.507 32.7099 122.606 33.3271 122.804 33.7854V33.9104H121.288ZM118.89 32.8088C119.343 32.8088 119.772 32.6917 120.179 32.4573C120.585 32.2229 120.879 31.9182 121.062 31.5432V29.8088H119.929C118.158 29.8088 117.272 30.3271 117.272 31.3635C117.272 31.8167 117.424 32.1708 117.726 32.426C118.028 32.6812 118.416 32.8088 118.89 32.8088ZM127.413 31.7932L129.382 25.4573H130.929L127.53 35.2151C127.004 36.6213 126.168 37.3245 125.022 37.3245L124.749 37.301L124.21 37.1995V36.0276L124.601 36.0588C125.09 36.0588 125.47 35.9599 125.741 35.762C126.017 35.564 126.244 35.2021 126.421 34.676L126.741 33.8167L123.726 25.4573H125.304L127.413 31.7932Z" fill="#BDBDBD"/>
</g>
<rect x="1.47754" y="1.4104" width="148.185" height="54" rx="7.5" stroke="#E0E0E0"/>
<defs>
<clipPath id="clip0">
<rect x="19.6328" y="18.9104" width="111.874" height="19" fill="white"/>
</clipPath>
</defs>
</svg>
