<svg width="134" height="56" viewBox="0 0 134 56" fill="none" xmlns="http://www.w3.org/2000/svg">
<g clip-path="url(#clip0)">
<path d="M19.1387 21.3105V27.3106H27.5387V20.2605L19.1387 21.3105Z" fill="#BDBDBD"/>
<path d="M28.7383 20.1104V27.3105H38.3384V18.9104L28.7383 20.1104Z" fill="#BDBDBD"/>
<path d="M28.7383 28.5104V35.7104L38.3384 36.9104V28.5104H28.7383Z" fill="#BDBDBD"/>
<path d="M19.1387 28.5104V34.5104L27.5387 35.5604V28.5104H19.1387Z" fill="#BDBDBD"/>
<path d="M52.1123 30.3245L52.3311 31.8245L52.6514 30.4729L54.9014 22.5354H56.167L58.3623 30.4729L58.6748 31.8479L58.917 30.3167L60.6826 22.5354H62.1904L59.4326 33.9104H58.0654L55.7217 25.6213L55.542 24.7542L55.3623 25.6213L52.9326 33.9104H51.5654L48.8154 22.5354H50.3154L52.1123 30.3245ZM65.2061 33.9104H63.7607V25.4573H65.2061V33.9104ZM63.6436 23.2151C63.6436 22.9807 63.7139 22.7828 63.8545 22.6213C64.0003 22.4599 64.2139 22.3792 64.4951 22.3792C64.7764 22.3792 64.9899 22.4599 65.1357 22.6213C65.2816 22.7828 65.3545 22.9807 65.3545 23.2151C65.3545 23.4495 65.2816 23.6448 65.1357 23.801C64.9899 23.9573 64.7764 24.0354 64.4951 24.0354C64.2139 24.0354 64.0003 23.9573 63.8545 23.801C63.7139 23.6448 63.6436 23.4495 63.6436 23.2151ZM68.8936 25.4573L68.9404 26.5198C69.5863 25.7073 70.43 25.301 71.4717 25.301C73.2581 25.301 74.1592 26.3088 74.1748 28.3245V33.9104H72.7295V28.3167C72.7243 27.7073 72.5837 27.2568 72.3076 26.9651C72.0368 26.6734 71.6123 26.5276 71.0342 26.5276C70.5654 26.5276 70.154 26.6526 69.7998 26.9026C69.4456 27.1526 69.1696 27.4807 68.9717 27.887V33.9104H67.5264V25.4573H68.8936ZM76.0029 29.6135C76.0029 28.3167 76.3102 27.275 76.9248 26.4885C77.5394 25.6969 78.3441 25.301 79.3389 25.301C80.3285 25.301 81.1123 25.6396 81.6904 26.3167V21.9104H83.1357V33.9104H81.8076L81.7373 33.0042C81.1592 33.7125 80.3545 34.0667 79.3232 34.0667C78.3441 34.0667 77.5446 33.6656 76.9248 32.8635C76.3102 32.0614 76.0029 31.0146 76.0029 29.7229V29.6135ZM77.4482 29.7776C77.4482 30.7359 77.6462 31.4859 78.042 32.0276C78.4378 32.5693 78.9847 32.8401 79.6826 32.8401C80.5993 32.8401 81.2686 32.4286 81.6904 31.6057V27.7229C81.2581 26.926 80.5941 26.5276 79.6982 26.5276C78.9899 26.5276 78.4378 26.801 78.042 27.3479C77.6462 27.8948 77.4482 28.7047 77.4482 29.7776ZM85.0029 29.6057C85.0029 28.7776 85.1644 28.0328 85.4873 27.3713C85.8154 26.7099 86.2686 26.1995 86.8467 25.8401C87.43 25.4807 88.0941 25.301 88.8389 25.301C89.9899 25.301 90.9196 25.6995 91.6279 26.4963C92.3415 27.2932 92.6982 28.3531 92.6982 29.676V29.7776C92.6982 30.6005 92.5394 31.3401 92.2217 31.9963C91.9092 32.6474 91.4587 33.1552 90.8701 33.5198C90.2868 33.8844 89.6149 34.0667 88.8545 34.0667C87.7087 34.0667 86.779 33.6682 86.0654 32.8713C85.3571 32.0745 85.0029 31.0198 85.0029 29.7073V29.6057ZM86.4561 29.7776C86.4561 30.7151 86.6722 31.4677 87.1045 32.0354C87.542 32.6031 88.1253 32.887 88.8545 32.887C89.5889 32.887 90.1722 32.6005 90.6045 32.0276C91.0368 31.4495 91.2529 30.6422 91.2529 29.6057C91.2529 28.6786 91.0316 27.9286 90.5889 27.3557C90.1514 26.7776 89.568 26.4885 88.8389 26.4885C88.1253 26.4885 87.5498 26.7724 87.1123 27.3401C86.6748 27.9078 86.4561 28.7203 86.4561 29.7776ZM101.995 31.9182L103.62 25.4573H105.065L102.604 33.9104H101.433L99.3779 27.5042L97.3779 33.9104H96.2061L93.7529 25.4573H95.1904L96.8545 31.7854L98.8232 25.4573H99.9873L101.995 31.9182ZM111.464 31.6682C111.464 31.2776 111.315 30.9755 111.019 30.762C110.727 30.5432 110.214 30.3557 109.479 30.1995C108.75 30.0432 108.17 29.8557 107.737 29.637C107.31 29.4182 106.993 29.1578 106.784 28.8557C106.581 28.5536 106.479 28.1943 106.479 27.7776C106.479 27.0849 106.771 26.4989 107.354 26.0198C107.943 25.5406 108.693 25.301 109.604 25.301C110.563 25.301 111.339 25.5484 111.933 26.0432C112.532 26.538 112.831 27.1708 112.831 27.9417H111.378C111.378 27.5458 111.209 27.2047 110.87 26.9182C110.537 26.6318 110.115 26.4885 109.604 26.4885C109.078 26.4885 108.667 26.6031 108.37 26.8323C108.073 27.0614 107.925 27.3609 107.925 27.7307C107.925 28.0797 108.063 28.3427 108.339 28.5198C108.615 28.6969 109.112 28.8661 109.831 29.0276C110.555 29.189 111.141 29.3818 111.589 29.6057C112.037 29.8297 112.368 30.1005 112.581 30.4182C112.8 30.7307 112.909 31.1135 112.909 31.5667C112.909 32.3219 112.607 32.9286 112.003 33.387C111.399 33.8401 110.615 34.0667 109.651 34.0667C108.974 34.0667 108.375 33.9469 107.854 33.7073C107.334 33.4677 106.925 33.1344 106.628 32.7073C106.336 32.275 106.19 31.8088 106.19 31.3088H107.636C107.662 31.7932 107.854 32.1786 108.214 32.4651C108.578 32.7463 109.058 32.887 109.651 32.887C110.198 32.887 110.636 32.7776 110.964 32.5588C111.297 32.3349 111.464 32.038 111.464 31.6682Z" fill="#BDBDBD"/>
</g>
<rect x="0.5" y="1.4104" width="132.477" height="54" rx="7.5" stroke="#E0E0E0"/>
<defs>
<clipPath id="clip0">
<rect x="19.1387" y="18.9104" width="95.2001" height="19" fill="white"/>
</clipPath>
</defs>
</svg>
