<svg width="24" height="25" viewBox="0 0 24 25" fill="none" xmlns="http://www.w3.org/2000/svg">
<path fill-rule="evenodd" clip-rule="evenodd" d="M19 4.01392H18V3.01392C18 2.46392 17.55 2.01392 17 2.01392C16.45 2.01392 16 2.46392 16 3.01392V4.01392H8V3.01392C8 2.46392 7.55 2.01392 7 2.01392C6.45 2.01392 6 2.46392 6 3.01392V4.01392H5C3.89 4.01392 3.01 4.91392 3.01 6.01392L3 20.0139C3 21.1139 3.89 22.0139 5 22.0139H19C20.1 22.0139 21 21.1139 21 20.0139V6.01392C21 4.91392 20.1 4.01392 19 4.01392ZM19 19.0139C19 19.5639 18.55 20.0139 18 20.0139H6C5.45 20.0139 5 19.5639 5 19.0139V9.01392H19V19.0139ZM7 11.0139H9V13.0139H7V11.0139ZM11 11.0139H13V13.0139H11V11.0139ZM15 11.0139H17V13.0139H15V11.0139Z" fill="#39D8D8"/>
</svg>
