<svg width="24" height="25" viewBox="0 0 24 25" fill="none" xmlns="http://www.w3.org/2000/svg">
<path d="M23.0625 14.2974C23.5803 14.2974 24 13.8776 24 13.3599V7.21924C24 5.15149 22.3177 3.46924 20.25 3.46924H3.75C1.68225 3.46924 0 5.15149 0 7.21924V18.0474C0 20.1151 1.68225 21.7974 3.75 21.7974H20.25C22.3177 21.7974 24 20.1151 24 18.0474C24 17.5296 23.5803 17.1099 23.0625 17.1099C22.5447 17.1099 22.125 17.5296 22.125 18.0474C22.125 19.0812 21.2839 19.9224 20.25 19.9224H3.75C2.71613 19.9224 1.875 19.0812 1.875 18.0474V7.41789L10.0198 12.4825C10.6305 12.8622 11.3153 13.0521 12 13.0521C12.6847 13.0521 13.3695 12.8622 13.9802 12.4825L22.125 7.41789V13.3599C22.125 13.8776 22.5447 14.2974 23.0625 14.2974ZM12.9901 10.8902C12.3794 11.2699 11.6206 11.27 11.0099 10.8902L2.6573 5.69636C2.96517 5.47483 3.34261 5.34424 3.75 5.34424H20.25C20.6574 5.34424 21.0348 5.47488 21.3427 5.69641L12.9901 10.8902Z" fill="#39D8D8"/>
</svg>
