<svg width="245" height="73" viewBox="0 0 245 73" fill="none" xmlns="http://www.w3.org/2000/svg">
<g clip-path="url(#clip0)">
<path d="M234.996 72.0571H9.8496C4.80632 72.0571 0.84375 67.9171 0.84375 63.0571V9.05707C0.84375 4.01707 4.98644 0.0570679 9.8496 0.0570679H234.996C240.039 0.0570679 244.002 4.19707 244.002 9.05707V63.0571C244.002 68.0971 240.039 72.0571 234.996 72.0571Z" fill="#333333"/>
<path d="M88.7392 47.969H80.4036L78.4018 53.8862H74.8711L82.7665 31.994H86.4348L94.3302 53.8862H90.7393L88.7392 47.969ZM81.2669 45.2385H87.8743L84.617 35.6353H84.5258L81.2669 45.2385Z" fill="white"/>
<path d="M111.38 45.9065C111.38 50.8665 108.728 54.0532 104.726 54.0532C103.713 54.1063 102.704 53.8725 101.817 53.3787C100.93 52.8848 100.2 52.1508 99.7098 51.2607H99.634V59.1664H96.3613V37.9251H99.5291V40.5798H99.5893C100.102 39.694 100.844 38.9638 101.738 38.4669C102.632 37.97 103.644 37.7251 104.666 37.7581C108.713 37.7581 111.38 40.9603 111.38 45.9065ZM108.016 45.9065C108.016 42.675 106.348 40.5505 103.803 40.5505C101.302 40.5505 99.6203 42.7198 99.6203 45.9065C99.6203 49.1225 101.302 51.2762 103.803 51.2762C106.348 51.2762 108.016 49.1673 108.016 45.9065H108.016Z" fill="white"/>
<path d="M128.93 45.9065C128.93 50.8665 126.277 54.0532 122.275 54.0532C121.261 54.1063 120.253 53.8725 119.366 53.3787C118.479 52.8848 117.748 52.1508 117.259 51.2607H117.183V59.1664H113.91V37.9251H117.078V40.5798H117.138C117.651 39.694 118.393 38.9638 119.287 38.4669C120.181 37.97 121.193 37.7251 122.215 37.7581C126.262 37.7581 128.93 40.9603 128.93 45.9065ZM125.565 45.9065C125.565 42.675 123.897 40.5505 121.352 40.5505C118.851 40.5505 117.169 42.7198 117.169 45.9065C117.169 49.1225 118.851 51.2762 121.352 51.2762C123.897 51.2762 125.565 49.1673 125.565 45.9065Z" fill="white"/>
<path d="M140.528 47.7865C140.77 49.9575 142.877 51.3829 145.756 51.3829C148.514 51.3829 150.499 49.9574 150.499 47.9999C150.499 46.3006 149.302 45.2832 146.468 44.5859L143.634 43.9024C139.618 42.9314 137.754 41.0514 137.754 38.0007C137.754 34.2235 141.042 31.629 145.71 31.629C150.332 31.629 153.5 34.2235 153.607 38.0007H150.303C150.105 35.816 148.301 34.4972 145.665 34.4972C143.028 34.4972 141.224 35.8315 141.224 37.7735C141.224 39.3212 142.377 40.2319 145.195 40.9291L147.605 41.5214C152.092 42.5836 153.954 44.3879 153.954 47.5901C153.954 51.6858 150.697 54.251 145.513 54.251C140.664 54.251 137.389 51.7461 137.178 47.7863L140.528 47.7865Z" fill="white"/>
<path d="M161.02 34.1478V37.925H164.052V40.5195H161.02V49.3187C161.02 50.6856 161.628 51.3227 162.96 51.3227C163.32 51.3164 163.68 51.2911 164.037 51.2468V53.8258C163.438 53.9379 162.829 53.9887 162.219 53.9773C158.991 53.9773 157.732 52.7636 157.732 49.6681V40.5195H155.414V37.925H157.732V34.1478H161.02Z" fill="white"/>
<path d="M165.807 45.9064C165.807 40.8845 168.761 37.7287 173.368 37.7287C177.991 37.7287 180.932 40.8844 180.932 45.9064C180.932 50.9422 178.007 54.0841 173.368 54.0841C168.732 54.0841 165.807 50.9421 165.807 45.9064ZM177.597 45.9064C177.597 42.4615 176.02 40.4282 173.368 40.4282C170.717 40.4282 169.14 42.477 169.14 45.9064C169.14 49.3651 170.717 51.3829 173.368 51.3829C176.02 51.3829 177.597 49.3651 177.597 45.9064H177.597Z" fill="white"/>
<path d="M183.629 37.9249H186.75V40.6416H186.826C187.037 39.7931 187.534 39.0433 188.232 38.5181C188.931 37.993 189.788 37.7245 190.661 37.7579C191.038 37.7566 191.414 37.7976 191.782 37.8801V40.9446C191.306 40.799 190.81 40.7321 190.312 40.7466C189.836 40.7273 189.362 40.8112 188.922 40.9926C188.482 41.174 188.087 41.4486 187.763 41.7974C187.439 42.1463 187.194 42.5612 187.046 43.0137C186.897 43.4662 186.848 43.9456 186.902 44.4188V53.886H183.629L183.629 37.9249Z" fill="white"/>
<path d="M206.871 49.1982C206.43 52.0956 203.612 54.0841 200.005 54.0841C195.367 54.0841 192.488 50.9731 192.488 45.9822C192.488 40.9757 195.383 37.7287 199.868 37.7287C204.279 37.7287 207.053 40.7622 207.053 45.6017V46.7242H195.792V46.9222C195.74 47.5096 195.813 48.1013 196.007 48.6581C196.201 49.215 196.512 49.7241 196.917 50.1517C197.323 50.5793 197.815 50.9156 198.36 51.1382C198.906 51.3609 199.492 51.4648 200.081 51.4431C200.854 51.5157 201.631 51.3364 202.294 50.9319C202.957 50.5274 203.473 49.9193 203.763 49.1981L206.871 49.1982ZM195.807 44.4344H203.779C203.808 43.9063 203.728 43.3777 203.544 42.882C203.359 42.3862 203.075 41.9339 202.707 41.5536C202.34 41.1732 201.898 40.8729 201.41 40.6715C200.921 40.4702 200.396 40.3721 199.868 40.3835C199.335 40.3803 198.807 40.4828 198.313 40.6851C197.82 40.8874 197.372 41.1854 196.994 41.562C196.617 41.9387 196.318 42.3864 196.114 42.8794C195.91 43.3724 195.806 43.9009 195.807 44.4345V44.4344Z" fill="white"/>
<path d="M52.6668 37.3999C52.6904 35.5626 53.1777 33.7611 54.0833 32.1632C54.9888 30.5652 56.2833 29.2226 57.8462 28.2602C56.8533 26.8401 55.5435 25.6714 54.0208 24.8469C52.4981 24.0224 50.8043 23.5649 49.0742 23.5107C45.3835 23.1227 41.8055 25.7226 39.9247 25.7226C38.0076 25.7226 35.1119 23.5492 31.9938 23.6135C29.9769 23.6787 28.0112 24.2661 26.2884 25.3185C24.5655 26.3708 23.1442 27.8521 22.163 29.6181C17.9124 36.9887 21.083 47.8211 25.1547 53.779C27.1919 56.6964 29.5727 59.9552 32.6881 59.8397C35.7367 59.713 36.8752 57.8927 40.5551 57.8927C44.2008 57.8927 45.269 59.8397 48.4476 59.7662C51.7188 59.713 53.7798 56.8358 55.7456 53.8908C57.2093 51.812 58.3356 49.5146 59.0829 47.0835C57.1823 46.2784 55.5605 44.9309 54.4195 43.2089C53.2786 41.4868 52.669 39.4665 52.6668 37.3999Z" fill="white"/>
<path d="M46.6628 19.5924C48.4464 17.448 49.3251 14.6917 49.1123 11.9088C46.3874 12.1954 43.8703 13.4998 42.0626 15.562C41.1787 16.5694 40.5018 17.7414 40.0705 19.011C39.6391 20.2806 39.4619 21.6229 39.5489 22.9611C40.9118 22.9752 42.2602 22.6793 43.4925 22.0958C44.7247 21.5123 45.8087 20.6564 46.6628 19.5924Z" fill="white"/>
<path d="M78.8348 23.8171C78.1143 23.8171 77.3938 23.6371 76.6734 23.0971C75.9529 22.5571 75.5927 22.0171 75.2324 21.1171L76.4932 20.5771C76.6734 21.1171 76.8535 21.6571 77.3938 22.0171C77.7541 22.3771 78.2944 22.5571 78.8348 22.5571C79.3751 22.5571 79.9155 22.3771 80.2757 22.0171C80.6359 21.6571 80.9962 21.1171 80.9962 20.5771C80.9962 20.0371 80.816 19.6771 80.2757 19.1371C79.9155 18.7771 79.3751 18.5971 78.6546 18.5971H77.7541V17.1571H78.6546C79.195 17.1571 79.7353 16.9771 80.0956 16.6171C80.4558 16.2571 80.6359 15.8971 80.6359 15.3571C80.6359 14.8171 80.4558 14.4571 80.0956 14.2771C79.7353 13.9171 79.195 13.9171 78.8348 13.9171C77.9342 13.9171 77.2137 14.4571 77.0336 15.3571L75.7728 14.8171C75.9529 14.2771 76.3131 13.7371 76.8535 13.1971C77.3938 12.6571 78.1143 12.4771 79.0149 12.4771C79.9155 12.4771 80.816 12.8371 81.3564 13.3771C82.0769 13.9171 82.257 14.6371 82.257 15.5371C82.257 16.6171 81.7166 17.3371 80.816 17.8771C81.3564 18.0571 81.7166 18.4171 82.0769 18.9571C82.4371 19.4971 82.6172 19.8571 82.6172 20.5771C82.6172 21.4771 82.257 22.3771 81.5365 22.9171C80.816 23.4571 79.9155 23.8171 78.8348 23.8171Z" fill="white" stroke="white" stroke-width="0.2" stroke-miterlimit="10"/>
<path d="M83.3379 23.457L87.6607 12.117H89.2818L93.6046 23.457H91.9835L90.9028 20.397H86.2198L84.9589 23.457H83.3379ZM86.58 19.137H90.3625L88.5613 14.097L86.58 19.137Z" fill="white" stroke="white" stroke-width="0.2" stroke-miterlimit="10"/>
<path d="M95.0469 23.4571V12.2971H99.1896C100.09 12.2971 100.811 12.6571 101.531 13.1971C102.252 13.7371 102.432 14.4571 102.432 15.3571C102.432 15.8971 102.252 16.4371 102.071 16.7971C101.711 17.1571 101.351 17.5171 100.991 17.6971C101.531 17.8771 102.071 18.2371 102.432 18.5971C102.792 19.1371 102.972 19.6771 102.972 20.2171C102.972 21.1171 102.612 21.8371 101.891 22.5571C101.171 23.0971 100.45 23.4571 99.5498 23.4571H95.0469ZM96.4878 16.9771H99.1896C99.7299 16.9771 100.09 16.7971 100.45 16.4371C100.811 16.0771 100.991 15.7171 100.991 15.1771C100.991 14.8171 100.811 14.2771 100.45 13.9171C100.09 13.5571 99.7299 13.3771 99.1896 13.3771H96.4878V16.9771ZM96.4878 22.1971H99.3697C99.91 22.1971 100.45 22.0171 100.811 21.6571C101.171 21.2971 101.351 20.7571 101.351 20.3971C101.351 19.8571 101.171 19.4971 100.811 19.1371C100.45 18.7771 99.91 18.5971 99.3697 18.5971H96.4878V22.1971Z" fill="white" stroke="white" stroke-width="0.2" stroke-miterlimit="10"/>
<path d="M103.512 23.457L107.835 12.117H109.456L113.778 23.457H112.157L111.077 20.397H106.394L105.133 23.457H103.512ZM106.574 19.137H110.356L108.555 14.097L106.574 19.137Z" fill="white" stroke="white" stroke-width="0.2" stroke-miterlimit="10"/>
<path d="M115.039 23.4571V12.2971H116.48V17.1571H122.064V12.2971H123.505V23.4571H122.064V18.4171H116.48V23.4571H115.039Z" fill="white" stroke="white" stroke-width="0.2" stroke-miterlimit="10"/>
<path d="M129.808 23.4571H128.367V13.5571H125.125V12.2971H132.87V13.7371H129.628V23.4571H129.808Z" fill="white" stroke="white" stroke-width="0.2" stroke-miterlimit="10"/>
<path d="M132.51 23.457L136.833 12.117H138.454L142.776 23.457H141.155L140.075 20.397H135.392L134.131 23.457H132.51ZM135.752 19.137H139.534L137.733 14.097L135.752 19.137Z" fill="white" stroke="white" stroke-width="0.2" stroke-miterlimit="10"/>
<path d="M151.423 18.4171V23.4571H149.982V18.2371L145.479 23.4571H143.678L148.361 18.0571L143.858 12.2971H145.659L149.982 17.6971V12.2971H151.423V17.6971L155.746 12.2971H157.547L152.864 18.0571L157.547 23.4571H155.746L151.423 18.4171Z" fill="white" stroke="white" stroke-width="0.2" stroke-miterlimit="10"/>
<path d="M167.814 12.2971V23.4571H166.373V16.4371V14.2771L160.609 23.4571H159.168V12.2971H160.609V18.9571V21.1171L166.012 12.2971H167.814Z" fill="white" stroke="white" stroke-width="0.2" stroke-miterlimit="10"/>
<path d="M173.937 23.4571H172.496V13.5571H169.254V12.2971H176.999V13.7371H173.757V23.4571H173.937Z" fill="white" stroke="white" stroke-width="0.2" stroke-miterlimit="10"/>
<path d="M187.446 12.2971V23.4571H186.005V16.4371V14.2771L180.242 23.4571H178.801V12.2971H180.242V18.9571V21.1171L185.645 12.2971H187.446Z" fill="white" stroke="white" stroke-width="0.2" stroke-miterlimit="10"/>
<path d="M196.091 23.8171C195.37 23.8171 194.65 23.6371 193.929 23.0971C193.209 22.5571 192.849 22.0171 192.488 21.1171L193.749 20.5771C193.929 21.1171 194.109 21.6571 194.65 22.0171C195.01 22.3771 195.55 22.5571 196.091 22.5571C196.631 22.5571 197.171 22.3771 197.532 22.0171C197.892 21.6571 198.252 21.1171 198.252 20.5771C198.252 20.0371 198.072 19.6771 197.532 19.1371C197.171 18.7771 196.631 18.5971 195.911 18.5971H195.01V17.1571H195.911C196.451 17.1571 196.991 16.9771 197.351 16.6171C197.712 16.2571 197.892 15.8971 197.892 15.3571C197.892 14.8171 197.712 14.4571 197.351 14.2771C196.991 13.9171 196.451 13.9171 196.091 13.9171C195.19 13.9171 194.47 14.4571 194.289 15.3571L193.029 14.8171C193.209 14.2771 193.569 13.7371 194.109 13.1971C194.65 12.6571 195.37 12.4771 196.271 12.4771C197.171 12.4771 198.072 12.8371 198.612 13.3771C199.333 13.9171 199.513 14.6371 199.513 15.5371C199.513 16.6171 198.972 17.3371 198.072 17.8771C198.612 18.0571 198.972 18.4171 199.333 18.9571C199.693 19.4971 199.873 19.8571 199.873 20.5771C199.873 21.4771 199.513 22.3771 198.792 22.9171C197.892 23.4571 197.171 23.8171 196.091 23.8171Z" fill="white" stroke="white" stroke-width="0.2" stroke-miterlimit="10"/>
</g>
<defs>
<clipPath id="clip0">
<rect x="0.84375" y="0.0570679" width="243.158" height="72" fill="white"/>
</clipPath>
</defs>
</svg>
