<svg width="244" height="73" viewBox="0 0 244 73" fill="none" xmlns="http://www.w3.org/2000/svg">
<g clip-path="url(#clip0)">
<path d="M234.574 72.0571H9.42772C4.38445 72.0571 0.421875 67.9171 0.421875 63.0571V9.05707C0.421875 4.01707 4.56457 0.0570679 9.42772 0.0570679H234.574C239.617 0.0570679 243.58 4.19707 243.58 9.05707V63.0571C243.58 68.0971 239.617 72.0571 234.574 72.0571Z" fill="#333333"/>
<path d="M123.081 39.297C118.758 39.297 115.336 42.537 115.336 47.037C115.336 51.357 118.758 54.777 123.081 54.777C127.404 54.777 130.826 51.537 130.826 47.037C130.826 42.357 127.404 39.297 123.081 39.297ZM123.081 51.537C120.739 51.537 118.758 49.557 118.758 46.857C118.758 44.157 120.739 42.177 123.081 42.177C125.422 42.177 127.404 43.977 127.404 46.857C127.404 49.557 125.422 51.537 123.081 51.537ZM106.33 39.297C102.007 39.297 98.5849 42.537 98.5849 47.037C98.5849 51.357 102.007 54.777 106.33 54.777C110.653 54.777 114.075 51.537 114.075 47.037C114.075 42.357 110.653 39.297 106.33 39.297ZM106.33 51.537C103.988 51.537 102.007 49.557 102.007 46.857C102.007 44.157 103.988 42.177 106.33 42.177C108.671 42.177 110.653 43.977 110.653 46.857C110.653 49.557 108.671 51.537 106.33 51.537ZM86.3369 41.637V44.877H94.082C93.9019 46.677 93.1814 48.117 92.2808 49.017C91.2001 50.097 89.3989 51.357 86.3369 51.357C81.4738 51.357 77.8714 47.577 77.8714 42.717C77.8714 37.857 81.6539 34.077 86.3369 34.077C88.8586 34.077 90.8399 35.157 92.2808 36.417L94.6223 34.077C92.641 32.277 90.1194 30.837 86.5171 30.837C80.0328 30.837 74.4492 36.237 74.4492 42.717C74.4492 49.197 80.0328 54.597 86.5171 54.597C90.1194 54.597 92.641 53.517 94.8024 51.177C96.9638 49.017 97.6843 45.957 97.6843 43.617C97.6843 42.897 97.6843 42.177 97.5042 41.637H86.3369ZM168.11 44.157C167.39 42.357 165.588 39.297 161.626 39.297C157.663 39.297 154.421 42.357 154.421 47.037C154.421 51.357 157.663 54.777 161.986 54.777C165.408 54.777 167.57 52.617 168.29 51.357L165.769 49.557C164.868 50.817 163.787 51.717 161.986 51.717C160.185 51.717 159.104 50.997 158.204 49.377L168.47 45.057L168.11 44.157ZM157.663 46.677C157.663 43.797 160.005 42.177 161.626 42.177C162.887 42.177 164.147 42.897 164.508 43.797L157.663 46.677ZM149.198 54.057H152.62V31.557H149.198V54.057ZM143.794 40.917C142.894 40.017 141.453 39.117 139.652 39.117C135.869 39.117 132.267 42.537 132.267 46.857C132.267 51.177 135.689 54.417 139.652 54.417C141.453 54.417 142.894 53.517 143.614 52.617H143.794V53.697C143.794 56.577 142.173 58.197 139.652 58.197C137.67 58.197 136.229 56.757 135.869 55.497L132.987 56.757C133.888 58.737 136.049 61.257 139.832 61.257C143.794 61.257 147.036 58.917 147.036 53.337V39.657H143.794V40.917ZM139.832 51.537C137.49 51.537 135.509 49.557 135.509 46.857C135.509 44.157 137.49 42.177 139.832 42.177C142.173 42.177 143.974 44.157 143.974 46.857C143.974 49.557 142.173 51.537 139.832 51.537ZM183.78 31.557H175.675V54.057H179.097V45.597H183.78C187.563 45.597 191.165 42.897 191.165 38.577C191.165 34.257 187.563 31.557 183.78 31.557ZM183.96 42.357H179.097V34.617H183.96C186.482 34.617 187.923 36.777 187.923 38.397C187.743 40.377 186.302 42.357 183.96 42.357ZM204.674 39.117C202.152 39.117 199.631 40.197 198.73 42.537L201.792 43.797C202.512 42.537 203.593 42.177 204.854 42.177C206.655 42.177 208.276 43.257 208.456 45.057V45.237C207.916 44.877 206.475 44.337 205.034 44.337C201.792 44.337 198.55 46.137 198.55 49.377C198.55 52.437 201.252 54.417 204.133 54.417C206.475 54.417 207.556 53.337 208.456 52.257H208.636V54.057H211.878V45.417C211.518 41.457 208.456 39.117 204.674 39.117ZM204.314 51.537C203.233 51.537 201.612 50.997 201.612 49.557C201.612 47.757 203.593 47.217 205.214 47.217C206.655 47.217 207.376 47.577 208.276 47.937C207.916 50.097 206.115 51.537 204.314 51.537ZM223.226 39.657L219.443 49.377H219.263L215.301 39.657H211.698L217.642 53.337L214.22 60.897H217.642L226.828 39.657H223.226ZM192.966 54.057H196.388V31.557H192.966V54.057Z" fill="white"/>
<path d="M19.1541 13.5571C18.6137 14.0971 18.4336 14.9971 18.4336 16.0771V55.8571C18.4336 56.9371 18.7938 57.8371 19.3342 58.3771L19.5143 58.5571L41.8488 36.2371V36.0571V35.8771L19.1541 13.5571Z" fill="url(#paint0_linear)"/>
<path d="M49.0547 43.7971L41.6699 36.4171V36.0571V35.8771L49.0547 28.4971L49.2348 28.6771L58.0606 33.7171C60.5822 35.1571 60.5822 37.4971 58.0606 38.9371L49.0547 43.7971Z" fill="url(#paint1_linear)"/>
<path d="M49.2338 43.6171L41.6689 36.0571L19.1543 58.5571C20.0549 59.4571 21.3157 59.4571 22.9368 58.7371L49.2338 43.6171Z" fill="url(#paint2_linear)"/>
<path d="M49.2338 28.4971L22.9368 13.5571C21.3157 12.6571 20.0549 12.8371 19.1543 13.7371L41.6689 36.0571L49.2338 28.4971Z" fill="url(#paint3_linear)"/>
<path opacity="0.2" d="M49.0537 43.437L22.9368 58.197C21.4958 59.097 20.235 58.917 19.3344 58.197L19.1543 58.3771L19.3344 58.557C20.235 59.277 21.4958 59.457 22.9368 58.557L49.0537 43.437Z" fill="#333333"/>
<path opacity="0.12" d="M19.1541 58.1971C18.6137 57.6571 18.4336 56.7571 18.4336 55.6771V55.8571C18.4336 56.9371 18.7938 57.8371 19.3342 58.3771V58.1971H19.1541Z" fill="#333333"/>
<path opacity="0.12" d="M58.0586 38.3971L49.0527 43.4371L49.2329 43.6171L58.0586 38.5771C59.3194 37.8571 59.8598 36.9571 59.8598 36.0571C59.8598 36.9571 59.1393 37.6771 58.0586 38.3971Z" fill="#333333"/>
<path opacity="0.25" d="M22.9365 13.7371L58.0593 33.7171C59.14 34.4371 59.8605 35.1571 59.8605 36.0571C59.8605 35.1571 59.3201 34.2571 58.0593 33.5371L22.9365 13.5571C20.4149 12.1171 18.4336 13.1971 18.4336 16.0771V16.2571C18.4336 13.5571 20.4149 12.2971 22.9365 13.7371Z" fill="white"/>
<path d="M78.4129 23.8171C77.6924 23.8171 76.9719 23.6371 76.2515 23.0971C75.531 22.5571 75.1708 22.0171 74.8105 21.1171L76.0714 20.5771C76.2515 21.1171 76.4316 21.6571 76.972 22.0171C77.3322 22.3771 77.8725 22.5571 78.4129 22.5571C78.9532 22.5571 79.4936 22.3771 79.8538 22.0171C80.2141 21.6571 80.5743 21.1171 80.5743 20.5771C80.5743 20.0371 80.3942 19.6771 79.8538 19.1371C79.4936 18.7771 78.9532 18.5971 78.2328 18.5971H77.3322V17.1571H78.2328C78.7731 17.1571 79.3135 16.9771 79.6737 16.6171C80.0339 16.2571 80.2141 15.8971 80.2141 15.3571C80.2141 14.8171 80.0339 14.4571 79.6737 14.2771C79.3135 13.9171 78.7731 13.9171 78.4129 13.9171C77.5123 13.9171 76.7918 14.4571 76.6117 15.3571L75.3509 14.8171C75.531 14.2771 75.8913 13.7371 76.4316 13.1971C76.972 12.6571 77.6924 12.4771 78.593 12.4771C79.4936 12.4771 80.3942 12.8371 80.9345 13.3771C81.655 13.9171 81.8351 14.6371 81.8351 15.5371C81.8351 16.6171 81.2948 17.3371 80.3942 17.8771C80.9345 18.0571 81.2948 18.4171 81.655 18.9571C82.0152 19.4971 82.1953 19.8571 82.1953 20.5771C82.1953 21.4771 81.8351 22.3771 81.1146 22.9171C80.3942 23.4571 79.4936 23.8171 78.4129 23.8171Z" fill="white" stroke="white" stroke-width="0.2" stroke-miterlimit="10"/>
<path d="M82.916 23.457L87.2388 12.117H88.8599L93.1827 23.457H91.5616L90.4809 20.397H85.7979L84.5371 23.457H82.916ZM86.1581 19.137H89.9406L88.1394 14.097L86.1581 19.137Z" fill="white" stroke="white" stroke-width="0.2" stroke-miterlimit="10"/>
<path d="M94.625 23.4571V12.2971H98.7677C99.6683 12.2971 100.389 12.6571 101.109 13.1971C101.83 13.7371 102.01 14.4571 102.01 15.3571C102.01 15.8971 101.83 16.4371 101.65 16.7971C101.289 17.1571 100.929 17.5171 100.569 17.6971C101.109 17.8771 101.65 18.2371 102.01 18.5971C102.37 19.1371 102.55 19.6771 102.55 20.2171C102.55 21.1171 102.19 21.8371 101.469 22.5571C100.749 23.0971 100.029 23.4571 99.1279 23.4571H94.625ZM96.0659 16.9771H98.7677C99.308 16.9771 99.6683 16.7971 100.029 16.4371C100.389 16.0771 100.569 15.7171 100.569 15.1771C100.569 14.8171 100.389 14.2771 100.029 13.9171C99.6683 13.5571 99.308 13.3771 98.7677 13.3771H96.0659V16.9771ZM96.0659 22.1971H98.9478C99.4882 22.1971 100.029 22.0171 100.389 21.6571C100.749 21.2971 100.929 20.7571 100.929 20.3971C100.929 19.8571 100.749 19.4971 100.389 19.1371C100.029 18.7771 99.4882 18.5971 98.9478 18.5971H96.0659V22.1971Z" fill="white" stroke="white" stroke-width="0.2" stroke-miterlimit="10"/>
<path d="M103.09 23.457L107.413 12.117H109.034L113.357 23.457H111.735L110.655 20.397H105.972L104.711 23.457H103.09ZM106.152 19.137H109.934L108.133 14.097L106.152 19.137Z" fill="white" stroke="white" stroke-width="0.2" stroke-miterlimit="10"/>
<path d="M114.617 23.4571V12.2971H116.058V17.1571H121.642V12.2971H123.083V23.4571H121.642V18.4171H116.058V23.4571H114.617Z" fill="white" stroke="white" stroke-width="0.2" stroke-miterlimit="10"/>
<path d="M129.386 23.4571H127.945V13.5571H124.703V12.2971H132.448V13.7371H129.206V23.4571H129.386Z" fill="white" stroke="white" stroke-width="0.2" stroke-miterlimit="10"/>
<path d="M132.088 23.457L136.411 12.117H138.032L142.355 23.457H140.734L139.653 20.397H134.97L133.709 23.457H132.088ZM135.33 19.137H139.112L137.311 14.097L135.33 19.137Z" fill="white" stroke="white" stroke-width="0.2" stroke-miterlimit="10"/>
<path d="M151.001 18.4171V23.4571H149.56V18.2371L145.057 23.4571H143.256L147.939 18.0571L143.436 12.2971H145.237L149.56 17.6971V12.2971H151.001V17.6971L155.324 12.2971H157.125L152.442 18.0571L157.125 23.4571H155.324L151.001 18.4171Z" fill="white" stroke="white" stroke-width="0.2" stroke-miterlimit="10"/>
<path d="M167.392 12.2971V23.4571H165.951V16.4371V14.2771L160.187 23.4571H158.746V12.2971H160.187V18.9571V21.1171L165.591 12.2971H167.392Z" fill="white" stroke="white" stroke-width="0.2" stroke-miterlimit="10"/>
<path d="M173.515 23.4571H172.074V13.5571H168.832V12.2971H176.577V13.7371H173.335V23.4571H173.515Z" fill="white" stroke="white" stroke-width="0.2" stroke-miterlimit="10"/>
<path d="M187.025 12.2971V23.4571H185.584V16.4371V14.2771L179.82 23.4571H178.379V12.2971H179.82V18.9571V21.1171L185.223 12.2971H187.025Z" fill="white" stroke="white" stroke-width="0.2" stroke-miterlimit="10"/>
<path d="M195.669 23.8171C194.948 23.8171 194.228 23.6371 193.507 23.0971C192.787 22.5571 192.427 22.0171 192.066 21.1171L193.327 20.5771C193.507 21.1171 193.687 21.6571 194.228 22.0171C194.588 22.3771 195.128 22.5571 195.669 22.5571C196.209 22.5571 196.749 22.3771 197.11 22.0171C197.47 21.6571 197.83 21.1171 197.83 20.5771C197.83 20.0371 197.65 19.6771 197.11 19.1371C196.749 18.7771 196.209 18.5971 195.489 18.5971H194.588V17.1571H195.489C196.029 17.1571 196.569 16.9771 196.93 16.6171C197.29 16.2571 197.47 15.8971 197.47 15.3571C197.47 14.8171 197.29 14.4571 196.93 14.2771C196.569 13.9171 196.029 13.9171 195.669 13.9171C194.768 13.9171 194.048 14.4571 193.868 15.3571L192.607 14.8171C192.787 14.2771 193.147 13.7371 193.687 13.1971C194.228 12.6571 194.948 12.4771 195.849 12.4771C196.749 12.4771 197.65 12.8371 198.19 13.3771C198.911 13.9171 199.091 14.6371 199.091 15.5371C199.091 16.6171 198.551 17.3371 197.65 17.8771C198.19 18.0571 198.551 18.4171 198.911 18.9571C199.271 19.4971 199.451 19.8571 199.451 20.5771C199.451 21.4771 199.091 22.3771 198.371 22.9171C197.47 23.4571 196.749 23.8171 195.669 23.8171Z" fill="white" stroke="white" stroke-width="0.2" stroke-miterlimit="10"/>
</g>
<defs>
<linearGradient id="paint0_linear" x1="39.6867" y1="15.7347" x2="9.47836" y2="45.9627" gradientUnits="userSpaceOnUse">
<stop stop-color="#00A0FF"/>
<stop offset="0.00657445" stop-color="#00A1FF"/>
<stop offset="0.2601" stop-color="#00BEFF"/>
<stop offset="0.5122" stop-color="#00D2FF"/>
<stop offset="0.7604" stop-color="#00DFFF"/>
<stop offset="1" stop-color="#00E3FF"/>
</linearGradient>
<linearGradient id="paint1_linear" x1="61.3645" y1="36.0598" x2="17.7817" y2="36.0598" gradientUnits="userSpaceOnUse">
<stop stop-color="#FFE000"/>
<stop offset="0.4087" stop-color="#FFBD00"/>
<stop offset="0.7754" stop-color="#FFA500"/>
<stop offset="1" stop-color="#FF9C00"/>
</linearGradient>
<linearGradient id="paint2_linear" x1="45.1396" y1="40.1902" x2="4.17467" y2="81.1818" gradientUnits="userSpaceOnUse">
<stop stop-color="#FF3A44"/>
<stop offset="1" stop-color="#C31162"/>
</linearGradient>
<linearGradient id="paint3_linear" x1="13.5656" y1="0.374406" x2="31.8583" y2="18.6788" gradientUnits="userSpaceOnUse">
<stop stop-color="#32A071"/>
<stop offset="0.0685" stop-color="#2DA771"/>
<stop offset="0.4762" stop-color="#15CF74"/>
<stop offset="0.8009" stop-color="#06E775"/>
<stop offset="1" stop-color="#00F076"/>
</linearGradient>
<clipPath id="clip0">
<rect x="0.421875" y="0.0570679" width="243.158" height="72" fill="white"/>
</clipPath>
</defs>
</svg>
