<svg width="24" height="24" viewBox="0 0 24 24" fill="none" xmlns="http://www.w3.org/2000/svg">
<g clip-path="url(#clip0)">
<path d="M23.9979 19.3384C23.9644 18.41 23.5777 17.5436 22.909 16.8989C21.5997 15.6364 20.5028 14.9076 19.4568 14.6053C18.0156 14.1888 16.6806 14.5676 15.4893 15.7311C15.4875 15.7328 15.4857 15.7346 15.4839 15.7364L14.2164 16.9944C13.4243 16.5479 11.884 15.5674 10.2198 13.9033L10.0964 13.78C8.43198 12.1156 7.45159 10.575 7.00548 9.78377L8.26361 8.51623C8.26539 8.51444 8.26717 8.51266 8.26895 8.51083C9.43244 7.31955 9.81119 5.98465 9.3947 4.54329C9.09241 3.49737 8.36364 2.4004 7.10111 1.09113C6.45639 0.422554 5.59009 0.0358358 4.66173 0.00236701C3.73281 -0.0311486 2.84144 0.292195 2.15013 0.912726L2.12322 0.936914C2.11075 0.948117 2.09856 0.959695 2.08666 0.971555C0.710454 2.34776 -0.0109526 4.27437 0.000344291 6.54316C0.0196099 10.3973 2.13784 14.8049 5.66655 18.3335C6.33194 18.9989 7.08817 19.6574 7.9142 20.2908C8.32506 20.6058 8.91353 20.5282 9.22858 20.1173C9.54367 19.7064 9.46595 19.1179 9.05505 18.8029C8.29403 18.2193 7.60005 17.6154 6.99236 17.0078C3.80505 13.8205 1.89213 9.90504 1.8753 6.53383C1.86663 4.78652 2.39223 3.3281 3.3955 2.31438L3.40267 2.30791C4.08409 1.69624 5.11577 1.73346 5.75148 2.39266C8.17863 4.90976 8.00289 6.09808 6.93039 7.19787L5.19255 8.94874C4.92002 9.22334 4.84413 9.63715 5.00148 9.99058C5.04559 10.0897 6.11289 12.4481 8.77094 15.1061L8.89436 15.2294C11.5521 17.8871 13.9105 18.9544 14.0096 18.9985C14.363 19.156 14.7769 19.08 15.0514 18.8075L16.8024 17.0696C17.9023 15.9971 19.0906 15.8214 21.6076 18.2486C22.2668 18.8842 22.304 19.9159 21.6925 20.5972L21.6858 20.6046C20.6804 21.5997 19.2375 22.1249 17.5092 22.1249C17.4949 22.1249 17.4807 22.1249 17.4664 22.1248C16.0849 22.1179 14.4852 21.7392 12.8403 21.0297C12.365 20.8246 11.8133 21.0438 11.6082 21.5192C11.4032 21.9947 11.6223 22.5463 12.0977 22.7514C13.9991 23.5715 15.8022 23.9915 17.4571 23.9998C17.4746 23.9998 17.4921 23.9999 17.5097 23.9999C19.7556 23.9999 21.6631 23.279 23.0287 21.9135C23.0405 21.9016 23.0521 21.8894 23.0633 21.8769L23.0876 21.8499C23.7081 21.1586 24.0314 20.2667 23.9979 19.3384Z" fill="white"/>
</g>
<defs>
<clipPath id="clip0">
<rect width="24" height="24" fill="white"/>
</clipPath>
</defs>
</svg>
