<svg width="30" height="31" viewBox="0 0 30 31" fill="none" xmlns="http://www.w3.org/2000/svg">
<path d="M22.6575 18.292C20.5723 18.292 18.876 19.9883 18.876 22.0735C18.876 24.1587 20.5723 25.855 22.6575 25.855C24.743 25.855 26.439 24.1587 26.439 22.0735C26.439 19.9883 24.7427 18.292 22.6575 18.292ZM22.6575 23.9643C21.6148 23.9643 20.7667 23.1163 20.7667 22.0735C20.7667 21.0308 21.6148 20.1828 22.6575 20.1828C23.7002 20.1828 24.5483 21.0308 24.5483 22.0735C24.5483 23.1163 23.7002 23.9643 22.6575 23.9643Z" fill="#39D8D8"/>
<path d="M9.7366 18.292C7.65143 18.292 5.95508 19.9883 5.95508 22.0735C5.95508 24.1587 7.65143 25.855 9.7366 25.855C11.8218 25.855 13.5181 24.1587 13.5181 22.0735C13.5181 19.9883 11.8218 18.292 9.7366 18.292ZM9.7366 23.9643C8.69387 23.9643 7.84584 23.1163 7.84584 22.0735C7.84584 21.0308 8.69387 20.1828 9.7366 20.1828C10.779 20.1828 11.6274 21.0308 11.6274 22.0735C11.6274 23.1163 10.7793 23.9643 9.7366 23.9643Z" fill="#39D8D8"/>
<path d="M25.2037 7.46787C25.043 7.14865 24.7162 6.94727 24.3589 6.94727H19.3799V8.83803H23.7759L26.3501 13.9582L28.0399 13.1086L25.2037 7.46787Z" fill="#39D8D8"/>
<path d="M19.8213 21.1592H12.668V23.0499H19.8213V21.1592Z" fill="#39D8D8"/>
<path d="M6.90133 21.1592H3.62406C3.10188 21.1592 2.67871 21.5824 2.67871 22.1045C2.67871 22.6267 3.10193 23.0499 3.62406 23.0499H6.90139C7.42358 23.0499 7.84674 22.6267 7.84674 22.1045C7.84674 21.5823 7.42352 21.1592 6.90133 21.1592Z" fill="#39D8D8"/>
<path d="M29.8016 15.3797L27.9421 12.9847C27.7634 12.754 27.4877 12.6191 27.1955 12.6191H20.3257V6.0015C20.3257 5.47932 19.9025 5.05615 19.3804 5.05615H3.62406C3.10187 5.05615 2.67871 5.47937 2.67871 6.0015C2.67871 6.52363 3.10193 6.94686 3.62406 6.94686H18.435V13.5645C18.435 14.0867 18.8582 14.5098 19.3803 14.5098H26.7326L28.1093 16.2834V21.159H25.4938C24.9716 21.159 24.5484 21.5822 24.5484 22.1044C24.5484 22.6265 24.9716 23.0497 25.4938 23.0497H29.0547C29.5769 23.0497 30 22.6265 30.0001 22.1044V15.9595C30.0001 15.7496 29.9301 15.5454 29.8016 15.3797Z" fill="#39D8D8"/>
<path d="M6.83904 16.3691H2.49027C1.96809 16.3691 1.54492 16.7924 1.54492 17.3145C1.54492 17.8367 1.96814 18.2598 2.49027 18.2598H6.83898C7.36117 18.2598 7.78434 17.8366 7.78434 17.3145C7.78439 16.7924 7.36117 16.3691 6.83904 16.3691Z" fill="#39D8D8"/>
<path d="M9.0126 12.6509H0.945352C0.423223 12.6509 0 13.0741 0 13.5963C0 14.1185 0.423223 14.5416 0.945352 14.5416H9.0126C9.53479 14.5416 9.95795 14.1184 9.95795 13.5963C9.95795 13.0742 9.53479 12.6509 9.0126 12.6509Z" fill="#39D8D8"/>
<path d="M10.5575 8.93262H2.49027C1.96809 8.93262 1.54492 9.35584 1.54492 9.87797C1.54492 10.4002 1.96814 10.8233 2.49027 10.8233H10.5575C11.0797 10.8233 11.5029 10.4001 11.5029 9.87797C11.5029 9.35584 11.0797 8.93262 10.5575 8.93262Z" fill="#39D8D8"/>
</svg>
