<svg width="134" height="56" viewBox="0 0 134 56" fill="none" xmlns="http://www.w3.org/2000/svg">
<g clip-path="url(#clip0)">
<path d="M30.2485 19.4104C29.2889 19.4768 28.1673 20.091 27.5137 20.8909C26.9174 21.6165 26.4269 22.6943 26.6182 23.7416C27.6667 23.7742 28.75 23.1454 29.3778 22.332C29.965 21.5749 30.4094 20.5039 30.2485 19.4104Z" fill="#BDBDBD"/>
<path d="M34.0405 25.4493C33.1191 24.2939 31.8243 23.6234 30.6014 23.6234C28.987 23.6234 28.3042 24.3963 27.1825 24.3963C26.0261 24.3963 25.1474 23.6257 23.7513 23.6257C22.38 23.6257 20.9197 24.4638 19.9938 25.897C18.6922 27.9153 18.915 31.7099 21.0243 34.942C21.7792 36.0984 22.7872 37.3989 24.1057 37.4102C25.2791 37.4214 25.6098 36.6576 27.1994 36.6497C28.789 36.6407 29.0905 37.4203 30.2616 37.4079C31.5813 37.3978 32.6444 35.9567 33.3992 34.8002C33.9404 33.9711 34.1417 33.5537 34.5614 32.6177C31.5093 31.4556 31.0199 27.1154 34.0405 25.4493Z" fill="#BDBDBD"/>
<path d="M52.1631 30.9417H47.3975L46.3271 33.9104H44.7803L49.124 22.5354H50.4365L54.7881 33.9104H53.249L52.1631 30.9417ZM47.8506 29.7073H51.7178L49.7803 24.387L47.8506 29.7073ZM63.2334 29.7776C63.2334 31.064 62.9391 32.1005 62.3506 32.887C61.762 33.6734 60.9652 34.0667 59.96 34.0667C58.9339 34.0667 58.1266 33.7411 57.5381 33.0901V37.1604H56.0928V25.4573H57.4131L57.4834 26.3948C58.0719 25.6656 58.8896 25.301 59.9365 25.301C60.9521 25.301 61.7542 25.6838 62.3428 26.4495C62.9365 27.2151 63.2334 28.2802 63.2334 29.6448V29.7776ZM61.7881 29.6135C61.7881 28.6604 61.585 27.9078 61.1787 27.3557C60.7725 26.8036 60.2152 26.5276 59.5068 26.5276C58.6318 26.5276 57.9756 26.9156 57.5381 27.6917V31.7307C57.9704 32.5015 58.6318 32.887 59.5225 32.887C60.2152 32.887 60.7646 32.6135 61.1709 32.0667C61.5824 31.5146 61.7881 30.6969 61.7881 29.6135ZM72.2178 29.7776C72.2178 31.064 71.9235 32.1005 71.335 32.887C70.7464 33.6734 69.9495 34.0667 68.9443 34.0667C67.9183 34.0667 67.111 33.7411 66.5225 33.0901V37.1604H65.0771V25.4573H66.3975L66.4678 26.3948C67.0563 25.6656 67.874 25.301 68.9209 25.301C69.9365 25.301 70.7386 25.6838 71.3271 26.4495C71.9209 27.2151 72.2178 28.2802 72.2178 29.6448V29.7776ZM70.7725 29.6135C70.7725 28.6604 70.5693 27.9078 70.1631 27.3557C69.7568 26.8036 69.1995 26.5276 68.4912 26.5276C67.6162 26.5276 66.96 26.9156 66.5225 27.6917V31.7307C66.9548 32.5015 67.6162 32.887 68.5068 32.887C69.1995 32.887 69.749 32.6135 70.1553 32.0667C70.5667 31.5146 70.7725 30.6969 70.7725 29.6135ZM81.6084 28.8401C80.3219 28.4703 79.3844 28.0172 78.7959 27.4807C78.2126 26.939 77.9209 26.2724 77.9209 25.4807C77.9209 24.5849 78.2777 23.8453 78.9912 23.262C79.71 22.6734 80.6423 22.3792 81.7881 22.3792C82.5693 22.3792 83.2646 22.5302 83.874 22.8323C84.4886 23.1344 84.9626 23.551 85.2959 24.0823C85.6344 24.6135 85.8037 25.1943 85.8037 25.8245H84.2959C84.2959 25.137 84.0771 24.5979 83.6396 24.2073C83.2021 23.8114 82.585 23.6135 81.7881 23.6135C81.0485 23.6135 80.4704 23.7776 80.0537 24.1057C79.6423 24.4286 79.4365 24.8792 79.4365 25.4573C79.4365 25.9208 79.6318 26.314 80.0225 26.637C80.4183 26.9547 81.0876 27.2463 82.0303 27.512C82.9782 27.7776 83.7178 28.0719 84.249 28.3948C84.7855 28.7125 85.1813 29.0849 85.4365 29.512C85.6969 29.939 85.8271 30.4417 85.8271 31.0198C85.8271 31.9417 85.4678 32.6812 84.749 33.2385C84.0303 33.7906 83.0693 34.0667 81.8662 34.0667C81.085 34.0667 80.3558 33.9182 79.6787 33.6213C79.0016 33.3193 78.4782 32.9078 78.1084 32.387C77.7438 31.8661 77.5615 31.275 77.5615 30.6135H79.0693C79.0693 31.301 79.3219 31.8453 79.8271 32.2463C80.3376 32.6422 81.0173 32.8401 81.8662 32.8401C82.6579 32.8401 83.2646 32.6786 83.6865 32.3557C84.1084 32.0328 84.3193 31.5927 84.3193 31.0354C84.3193 30.4781 84.124 30.0484 83.7334 29.7463C83.3428 29.439 82.6344 29.137 81.6084 28.8401ZM89.4912 23.4104V25.4573H91.0693V26.5745H89.4912V31.8167C89.4912 32.1552 89.5615 32.4104 89.7021 32.5823C89.8428 32.7489 90.0824 32.8323 90.4209 32.8323C90.5876 32.8323 90.8167 32.801 91.1084 32.7385V33.9104C90.7282 34.0146 90.3584 34.0667 89.999 34.0667C89.3532 34.0667 88.8662 33.8713 88.5381 33.4807C88.21 33.0901 88.0459 32.5354 88.0459 31.8167V26.5745H86.5068V25.4573H88.0459V23.4104H89.4912ZM92.2256 29.6057C92.2256 28.7776 92.387 28.0328 92.71 27.3713C93.0381 26.7099 93.4912 26.1995 94.0693 25.8401C94.6527 25.4807 95.3167 25.301 96.0615 25.301C97.2126 25.301 98.1423 25.6995 98.8506 26.4963C99.5641 27.2932 99.9209 28.3531 99.9209 29.676V29.7776C99.9209 30.6005 99.762 31.3401 99.4443 31.9963C99.1318 32.6474 98.6813 33.1552 98.0928 33.5198C97.5094 33.8844 96.8376 34.0667 96.0771 34.0667C94.9313 34.0667 94.0016 33.6682 93.2881 32.8713C92.5798 32.0745 92.2256 31.0198 92.2256 29.7073V29.6057ZM93.6787 29.7776C93.6787 30.7151 93.8949 31.4677 94.3271 32.0354C94.7646 32.6031 95.348 32.887 96.0771 32.887C96.8115 32.887 97.3949 32.6005 97.8271 32.0276C98.2594 31.4495 98.4756 30.6422 98.4756 29.6057C98.4756 28.6786 98.2542 27.9286 97.8115 27.3557C97.374 26.7776 96.7907 26.4885 96.0615 26.4885C95.348 26.4885 94.7725 26.7724 94.335 27.3401C93.8975 27.9078 93.6787 28.7203 93.6787 29.7776ZM105.819 26.7542C105.601 26.7177 105.364 26.6995 105.108 26.6995C104.16 26.6995 103.517 27.1031 103.179 27.9104V33.9104H101.733V25.4573H103.14L103.163 26.4338C103.637 25.6786 104.309 25.301 105.179 25.301C105.46 25.301 105.674 25.3375 105.819 25.4104V26.7542ZM110.507 34.0667C109.361 34.0667 108.429 33.6917 107.71 32.9417C106.991 32.1864 106.632 31.1786 106.632 29.9182V29.6526C106.632 28.814 106.791 28.0667 107.108 27.4104C107.431 26.7489 107.879 26.2333 108.452 25.8635C109.03 25.4885 109.655 25.301 110.327 25.301C111.426 25.301 112.28 25.663 112.89 26.387C113.499 27.1109 113.804 28.1474 113.804 29.4963V30.0979H108.077C108.098 30.9312 108.34 31.6057 108.804 32.1213C109.272 32.6318 109.866 32.887 110.585 32.887C111.095 32.887 111.528 32.7828 111.882 32.5745C112.236 32.3661 112.546 32.0901 112.812 31.7463L113.694 32.4338C112.986 33.5224 111.924 34.0667 110.507 34.0667ZM110.327 26.4885C109.744 26.4885 109.254 26.7021 108.858 27.1292C108.463 27.551 108.218 28.1448 108.124 28.9104H112.358V28.801C112.317 28.0667 112.119 27.4989 111.765 27.0979C111.41 26.6917 110.931 26.4885 110.327 26.4885Z" fill="#BDBDBD"/>
</g>
<rect x="1.19043" y="1.4104" width="131.367" height="54" rx="7.5" stroke="#E0E0E0"/>
<defs>
<clipPath id="clip0">
<rect x="19.1865" y="18.9104" width="95.3748" height="19" fill="white"/>
</clipPath>
</defs>
</svg>
