<svg width="25" height="24" viewBox="0 0 25 24" fill="none" xmlns="http://www.w3.org/2000/svg">
<g clip-path="url(#clip0)">
<path d="M20.607 1.21294C20.159 0.766452 19.631 0.391124 19.0374 0.0974511C18.7474 -0.0460336 18.4038 -0.0295335 18.1289 0.141186C17.854 0.311858 17.6868 0.612468 17.6868 0.936093V5.00124L16.2966 5.86759L14.9265 5.00415V0.935578C14.9265 0.612233 14.7595 0.311811 14.485 0.141045C14.2104 -0.0296742 13.8671 -0.0465961 13.5771 0.096373C12.9448 0.408045 12.4059 0.783703 11.9752 1.21294C10.8441 2.34042 10.0688 3.82336 9.84811 5.2816C9.58233 7.03726 10.0918 8.65787 11.2827 9.84494C11.7658 10.3264 12.6211 10.845 13.4762 11.1105V21.1461C13.4762 21.8953 13.7642 22.5989 14.2871 23.1276C14.8139 23.6601 15.5183 23.9533 16.2703 23.9533H16.2708C17.0214 23.9533 17.7273 23.6617 18.2585 23.1322C18.7951 22.5975 19.0904 21.8922 19.0902 21.1461C19.0901 20.6294 18.6712 20.2107 18.1546 20.2107H18.1544C17.6376 20.2108 17.2188 20.6298 17.2189 21.1465C17.2189 21.3914 17.119 21.6259 16.9375 21.8069C16.7595 21.9843 16.5228 22.082 16.2706 22.082H16.2704C16.0218 22.082 15.79 21.986 15.6174 21.8115C15.4434 21.6356 15.3475 21.3993 15.3475 21.1462V10.3497C15.3475 9.85797 14.9669 9.45016 14.4763 9.41627C13.8973 9.37628 12.9785 8.89295 12.6038 8.51945C11.8456 7.76368 11.524 6.71321 11.6984 5.56159C11.8447 4.59502 12.3335 3.60305 13.0551 2.79333V5.52029C13.0551 5.84167 13.22 6.14054 13.4919 6.31187L15.7949 7.76326C16.0983 7.95451 16.4843 7.95545 16.7887 7.76579L19.1173 6.31454C19.3915 6.14363 19.5581 5.84349 19.5581 5.52043V2.82882C20.4132 3.80644 20.9148 5.03729 20.9148 6.18953C20.9148 6.82661 20.7523 7.74803 19.9784 8.51941C19.5922 8.9043 18.6727 9.39081 18.1101 9.41758C17.6112 9.44134 17.2189 9.85277 17.2189 10.3522V16.421C17.2189 16.9377 17.6378 17.3566 18.1546 17.3566C18.6713 17.3566 19.0902 16.9377 19.0902 16.421V11.1209C19.9442 10.8602 20.8049 10.3379 21.2995 9.84485C22.272 8.87547 22.7862 7.61153 22.7862 6.18962C22.7862 4.43344 21.9715 2.57307 20.607 1.21294Z" fill="#39D8D8"/>
<path d="M7.4595 5.82986C7.68759 5.59839 7.77919 5.26511 7.70147 4.94954L6.67223 0.770164C6.56924 0.352038 6.19429 0.0582256 5.7637 0.0582256H3.70517C3.27458 0.0582256 2.89962 0.352085 2.79664 0.770164L1.7674 4.94954C1.68968 5.26511 1.78128 5.59839 2.00937 5.82986L3.84552 7.69384V12.1952C2.75633 12.5814 1.97417 13.622 1.97417 14.8418V21.1927C1.97398 21.9426 2.26597 22.6475 2.79631 23.1779C3.32647 23.708 4.03114 24 4.78049 23.9999C4.78072 23.9999 4.78105 23.9999 4.78129 23.9999C5.53115 23.9999 6.23601 23.7079 6.76617 23.1778C7.29637 22.6476 7.58836 21.9426 7.58826 21.1928V14.8419C7.58826 14.092 7.29623 13.3871 6.76603 12.8569C6.46481 12.5557 6.1071 12.3314 5.71691 12.1938V7.59887L7.4595 5.82986ZM5.71687 14.8419V21.1929C5.71691 21.4429 5.6196 21.6779 5.44288 21.8546C5.26621 22.0313 5.03127 22.1286 4.78105 22.1286H4.78077C4.53102 22.1286 4.29617 22.0313 4.11955 21.8546C3.94283 21.6778 3.84552 21.443 3.84556 21.193V14.8419C3.84556 14.326 4.26528 13.9062 4.78119 13.9062C5.03113 13.9062 5.26612 14.0035 5.44283 14.1802C5.61955 14.357 5.71691 14.592 5.71691 14.8419H5.71687ZM4.73446 5.92956L3.70958 4.88912L4.43844 1.92948H5.03047L5.75938 4.88912L4.73446 5.92956Z" fill="#39D8D8"/>
</g>
<defs>
<clipPath id="clip0">
<rect x="0.263672" width="24" height="24" fill="white"/>
</clipPath>
</defs>
</svg>
