<svg width="29" height="24" viewBox="0 0 29 24" fill="none" xmlns="http://www.w3.org/2000/svg">
<path d="M25.9264 0.861816H6.71365C5.56088 0.861816 4.63867 1.80965 4.63867 2.93679V14.8743C4.63867 16.0271 5.5865 16.9493 6.71365 16.9493H19.9576L22.9548 19.9721C23.0829 20.1002 23.2366 20.177 23.4159 20.177C23.7746 20.177 24.082 19.8952 24.082 19.511V16.9493H25.9264C27.0792 16.9493 28.0014 16.0015 28.0014 14.8743V2.93679C28.0014 1.78403 27.0535 0.861816 25.9264 0.861816ZM9.6596 11.1342C8.60931 11.1342 7.73833 10.2633 7.73833 9.21296C7.73833 8.16266 8.60931 7.29168 9.6596 7.29168C10.7099 7.29168 11.5809 8.16266 11.5809 9.21296C11.5809 10.2633 10.7355 11.1342 9.6596 11.1342ZM16.3969 11.1342C15.3466 11.1342 14.4756 10.2633 14.4756 9.21296C14.4756 8.16266 15.3466 7.29168 16.3969 7.29168C17.4472 7.29168 18.3181 8.16266 18.3181 9.21296C18.3181 10.2633 17.4472 11.1342 16.3969 11.1342ZM23.1085 11.1342C22.0582 11.1342 21.1873 10.2633 21.1873 9.21296C21.1873 8.16266 22.0582 7.29168 23.1085 7.29168C24.1588 7.29168 25.0298 8.16266 25.0298 9.21296C25.0298 10.2633 24.1588 11.1342 23.1085 11.1342Z" fill="#FFDC3A"/>
<path d="M3.45907 14.9256V10.8525H1.35847C0.61558 10.8525 0.000772449 11.4673 0.000772449 12.2102V20.049C-0.0248445 20.8432 0.589963 21.458 1.35847 21.458H2.56247V23.1487C2.56247 23.3792 2.76741 23.5842 2.99796 23.5842C3.12605 23.5842 3.22851 23.533 3.30536 23.4561L5.27787 21.4836H13.9877C14.7305 21.4836 15.3454 20.8688 15.3454 20.1259V18.179H6.71242C4.91924 18.179 3.45907 16.7188 3.45907 14.9256Z" fill="#FFDC3A"/>
</svg>
