<svg width="24" height="24" viewBox="0 0 24 24" fill="none" xmlns="http://www.w3.org/2000/svg">
<path fill-rule="evenodd" clip-rule="evenodd" d="M11.0007 8.75V12.43C11.0007 12.78 11.1907 13.11 11.4907 13.29L14.6107 15.14C14.9707 15.35 15.4307 15.23 15.6407 14.88C15.8507 14.52 15.7407 14.06 15.3807 13.85L12.5107 12.14V8.74C12.5007 8.34 12.1607 8 11.7507 8C11.3407 8 11.0007 8.34 11.0007 8.75ZM21.0007 9.5V4.21C21.0007 3.76 20.4607 3.54 20.1507 3.86L18.3707 5.64C16.5607 3.83 13.9807 2.79 11.1607 3.04C6.97074 3.42 3.52074 6.79 3.06074 10.98C2.46074 16.4 6.69074 21 12.0007 21C16.5907 21 20.3807 17.56 20.9307 13.12C21.0007 12.52 20.5307 12 19.9307 12C19.4307 12 19.0107 12.37 18.9507 12.86C18.5207 16.35 15.5107 19.05 11.9007 19C8.19074 18.95 5.06074 15.82 5.00074 12.1C4.94074 8.2 8.11074 5 12.0007 5C13.9307 5 15.6807 5.79 16.9507 7.05L14.8607 9.14C14.5407 9.46 14.7607 10 15.2107 10H20.5007C20.7807 10 21.0007 9.78 21.0007 9.5Z" fill="#92D042"/>
</svg>
