<svg width="17" height="17" viewBox="0 0 17 17" fill="none" xmlns="http://www.w3.org/2000/svg">
<path d="M16.2114 14.2101C16.141 13.8722 15.8101 13.6552 15.4721 13.7256C15.1342 13.7959 14.9173 14.1269 14.9876 14.4648C15.0282 14.6595 14.9799 14.859 14.8553 15.0123C14.7831 15.1011 14.6221 15.25 14.3553 15.25H2.1486C1.88178 15.25 1.72082 15.1011 1.64863 15.0123C1.52397 14.859 1.47572 14.6595 1.51625 14.4648C2.16488 11.3494 4.91285 9.07356 8.08625 8.99681C8.14122 8.99894 8.19644 9 8.25194 9C8.30763 9 8.36307 8.99891 8.41825 8.99678C10.6536 9.05041 12.7198 10.1826 13.971 12.0487C14.1632 12.3354 14.5514 12.4119 14.8382 12.2197C15.1248 12.0275 15.2014 11.6393 15.0092 11.3526C13.9837 9.82306 12.4945 8.71088 10.7966 8.15203C11.8313 7.37613 12.5019 6.13991 12.5019 4.75C12.5019 2.40656 10.5954 0.5 8.25194 0.5C5.90847 0.5 4.00194 2.40656 4.00194 4.75C4.00194 6.14075 4.67344 7.37762 5.70922 8.15347C4.76022 8.46591 3.86975 8.95206 3.09038 9.59313C1.66125 10.7687 0.667597 12.4083 0.292504 14.2101C0.174941 14.7747 0.315785 15.3545 0.678847 15.801C1.04013 16.2452 1.57585 16.5 2.1486 16.5H14.3553C14.928 16.5 15.4638 16.2452 15.825 15.801C16.1881 15.3545 16.3289 14.7747 16.2114 14.2101ZM5.25194 4.75C5.25194 3.09578 6.59772 1.75 8.25194 1.75C9.90616 1.75 11.2519 3.09578 11.2519 4.75C11.2519 6.35328 9.98772 7.66684 8.40378 7.74619C8.35325 7.74525 8.30263 7.74478 8.25194 7.74478C8.2015 7.74478 8.15107 7.74528 8.10069 7.74622C6.51647 7.66719 5.25194 6.3535 5.25194 4.75Z" fill="#92D042" stroke="#92D042" stroke-width="0.4"/>
</svg>
