<svg width="24" height="25" viewBox="0 0 24 25" fill="none" xmlns="http://www.w3.org/2000/svg">
<g clip-path="url(#clip0)">
<path d="M20.4554 3.71149C18.1927 1.64051 15.1898 0.5 12 0.5C8.81026 0.5 5.80741 1.64051 3.54471 3.71149C1.2589 5.80357 3.12567e-05 8.59178 3.12567e-05 11.5625C3.12567e-05 13.8793 0.757624 16.0743 2.19706 17.9455L0.0683749 23.211C-0.0746405 23.5648 0.011 23.9699 0.284984 24.2355C0.463577 24.4086 0.698796 24.5 0.937764 24.5C1.0654 24.5 1.19412 24.4739 1.31572 24.4203L7.34646 21.7619C8.82025 22.3348 10.3838 22.625 12 22.625C14.023 22.625 16.0232 22.1522 17.7843 21.2577C18.2459 21.0232 18.4301 20.459 18.1957 19.9973C17.9612 19.5357 17.3969 19.3515 16.9352 19.586C15.4359 20.3474 13.7294 20.75 12 20.75C10.4975 20.75 9.05073 20.4577 7.69984 19.8814C7.46125 19.7796 7.19116 19.7812 6.95378 19.8859L2.67199 21.7733L4.14227 18.1364C4.27319 17.8125 4.21324 17.4427 3.9866 17.1768C2.6052 15.5562 1.87503 13.6148 1.87503 11.5625C1.87503 6.49647 6.41707 2.375 12 2.375C17.583 2.375 22.125 6.49647 22.125 11.5625C22.125 13.307 21.5837 15.0043 20.5595 16.4709C20.263 16.8954 20.3668 17.4799 20.7913 17.7763C21.2158 18.0728 21.8003 17.9689 22.0967 17.5444C23.3419 15.7614 24 13.6929 24 11.5625C24 8.59178 22.7412 5.80357 20.4554 3.71149Z" fill="#39D8D8"/>
<path d="M13.6161 14.3197C13.9495 14.3197 14.2199 14.0494 14.2199 13.7159V12.0958C14.2199 10.864 13.2177 9.86188 11.9859 9.86188C10.7541 9.86188 9.75195 10.864 9.75195 12.0958V16.7348C9.75195 17.9666 10.7541 18.9687 11.9859 18.9687C13.2177 18.9687 14.2199 17.9666 14.2199 16.7348C14.2199 16.4013 13.9495 16.131 13.6161 16.131C13.2826 16.131 13.0123 16.4013 13.0123 16.7348C13.0123 17.3008 12.5519 17.7612 11.9859 17.7612C11.4199 17.7612 10.9595 17.3008 10.9595 16.7348V12.0958C10.9595 11.5299 11.4199 11.0694 11.9859 11.0694C12.5519 11.0694 13.0123 11.5299 13.0123 12.0958V13.7159C13.0123 14.0494 13.2826 14.3197 13.6161 14.3197Z" fill="#39D8D8" stroke="#39D8D8" stroke-width="0.5"/>
<path d="M12.0152 4.15625C10.7834 4.15625 9.78125 5.15839 9.78125 6.3902C9.78125 7.62201 10.7834 8.62415 12.0152 8.62415C13.247 8.62415 14.2492 7.62201 14.2492 6.3902C14.2492 5.15839 13.247 4.15625 12.0152 4.15625ZM12.0152 7.41661C11.4492 7.41661 10.9888 6.95617 10.9888 6.3902C10.9888 5.82423 11.4492 5.36379 12.0152 5.36379C12.5812 5.36379 13.0416 5.82423 13.0416 6.3902C13.0416 6.95617 12.5812 7.41661 12.0152 7.41661Z" fill="#39D8D8" stroke="#39D8D8" stroke-width="0.5"/>
</g>
<defs>
<clipPath id="clip0">
<rect y="0.5" width="24" height="24" fill="white"/>
</clipPath>
</defs>
</svg>
