<svg width="25" height="25" viewBox="0 0 25 25" fill="none" xmlns="http://www.w3.org/2000/svg">
<path d="M24.2496 19.4122C24.2161 18.4838 23.8294 17.6175 23.1607 16.9727C21.8515 15.7102 20.7545 14.9814 19.7085 14.6792C18.2674 14.2627 16.9324 14.6414 15.741 15.8049C15.7392 15.8067 15.7374 15.8085 15.7356 15.8102L14.4681 17.0683C13.676 16.6217 12.1357 15.6413 10.4715 13.9771L10.3482 13.8539C8.68372 12.1895 7.70333 10.6489 7.25722 9.85763L8.51535 8.59008C8.51713 8.5883 8.51891 8.58652 8.52069 8.58469C9.68418 7.39341 10.0629 6.0585 9.64644 4.61714C9.34415 3.57122 8.61538 2.47425 7.35285 1.16499C6.70813 0.496407 5.84183 0.109688 4.91347 0.0762196C3.98455 0.0427039 3.09318 0.366048 2.40187 0.986579L2.37496 1.01077C2.36249 1.02197 2.3503 1.03355 2.3384 1.04541C0.962193 2.42161 0.240787 4.34822 0.252084 6.61702C0.271349 10.4712 2.38958 14.8787 5.91829 18.4074C6.58368 19.0728 7.33991 19.7313 8.16594 20.3647C8.5768 20.6797 9.16527 20.602 9.48032 20.1911C9.79541 19.7802 9.71769 19.1917 9.30679 18.8767C8.54577 18.2932 7.85179 17.6892 7.2441 17.0817C4.05679 13.8944 2.14386 9.97889 2.12704 6.60769C2.11836 4.86037 2.64397 3.40195 3.64724 2.38824L3.65441 2.38177C4.33583 1.77009 5.36751 1.80731 6.00322 2.46652C8.43036 4.98361 8.25463 6.17194 7.18213 7.27172L5.44429 9.02259C5.17176 9.29719 5.09586 9.711 5.25322 10.0644C5.29733 10.1635 6.36463 12.522 9.02268 15.18L9.1461 15.3032C11.8038 17.961 14.1623 19.0282 14.2614 19.0724C14.6147 19.2298 15.0286 19.1539 15.3032 18.8813L17.0541 17.1435C18.154 16.0709 19.3424 15.8953 21.8593 18.3224C22.5185 18.958 22.5557 19.9897 21.9442 20.6711L21.9375 20.6784C20.9321 21.6735 19.4892 22.1987 17.7609 22.1987C17.7467 22.1987 17.7324 22.1987 17.7181 22.1986C16.3367 22.1917 14.737 21.813 13.0921 21.1035C12.6168 20.8984 12.065 21.1176 11.86 21.5931C11.6549 22.0685 11.874 22.6201 12.3495 22.8252C14.2508 23.6453 16.0539 24.0653 17.7088 24.0736C17.7264 24.0737 17.7438 24.0737 17.7614 24.0737C20.0074 24.0737 21.9148 23.3528 23.2804 21.9873C23.2923 21.9754 23.3038 21.9633 23.315 21.9508L23.3393 21.9237C23.9598 21.2325 24.2831 20.3405 24.2496 19.4122Z" fill="#39D8D8"/>
</svg>
