<svg width="24" height="25" viewBox="0 0 24 25" fill="none" xmlns="http://www.w3.org/2000/svg">
<g clip-path="url(#clip0)">
<path d="M12 4.3833C8.76914 4.3833 6.14062 7.01182 6.14062 10.2427C6.14062 13.4735 8.76914 16.1021 12 16.1021C12.5457 16.1021 13.0863 16.0269 13.607 15.8787C14.105 15.737 14.3937 15.2184 14.252 14.7204C14.1102 14.2224 13.5917 13.9336 13.0936 14.0754C12.74 14.176 12.372 14.2271 12 14.2271C9.80302 14.2271 8.01562 12.4397 8.01562 10.2427C8.01562 8.04569 9.80302 6.2583 12 6.2583C14.197 6.2583 15.9844 8.04569 15.9844 10.2427C15.9844 10.6336 15.9281 11.0194 15.8172 11.3894C15.6684 11.8853 15.9499 12.4079 16.4459 12.5567C16.9418 12.7053 17.4644 12.424 17.6131 11.928C17.7765 11.3831 17.8594 10.8161 17.8594 10.2427C17.8594 7.01182 15.2309 4.3833 12 4.3833Z" fill="#39D8D8"/>
<path d="M18.791 3.44411C16.9764 1.63155 14.5646 0.633301 11.9999 0.633301C9.43505 0.633301 7.02328 1.63155 5.20875 3.44416C3.39441 5.25663 2.39358 7.66704 2.39062 10.2334C2.39245 12.1016 2.91136 13.8544 3.97692 15.592C4.89966 17.0965 6.09839 18.4093 7.36748 19.7991C8.61188 21.1618 9.89855 22.571 10.9261 24.1967C11.0979 24.4685 11.3971 24.6333 11.7186 24.6333H12.2811C12.6026 24.6333 12.9018 24.4685 13.0736 24.1967C14.1012 22.5709 15.3878 21.1618 16.6322 19.7991C17.9013 18.4093 19.1001 17.0965 20.0228 15.5919C21.0884 13.8543 21.6073 12.1016 21.6091 10.2314C21.6062 7.66699 20.6053 5.25658 18.791 3.44411ZM15.2476 18.5348C14.1412 19.7465 13.0028 20.9933 11.9999 22.4272C10.997 20.9933 9.85852 19.7465 8.75208 18.5348C6.3465 15.9004 4.26891 13.6252 4.26562 10.2336C4.2705 5.97386 7.74009 2.5083 11.9999 2.5083C16.2596 2.5083 19.7292 5.97386 19.7341 10.2316C19.7308 13.6252 17.6532 15.9003 15.2476 18.5348Z" fill="#39D8D8"/>
</g>
<defs>
<clipPath id="clip0">
<rect y="0.633301" width="24" height="24" fill="white"/>
</clipPath>
</defs>
</svg>
