<svg width="244" height="73" viewBox="0 0 244 73" fill="none" xmlns="http://www.w3.org/2000/svg">
<g clip-path="url(#clip0)">
<path d="M234.662 72.0571H9.51561C4.47234 72.0571 0.509766 67.9171 0.509766 63.0571V9.05707C0.509766 4.01707 4.65246 0.0570679 9.51561 0.0570679H234.662C239.705 0.0570679 243.668 4.19707 243.668 9.05707V63.0571C243.668 68.0971 239.705 72.0571 234.662 72.0571Z" fill="black"/>
<path d="M14.2754 23.7583V34.7679H25.285H36.2946V23.7583V12.7487H25.285H14.2754V23.7583Z" fill="#F15021"/>
<path d="M38.6166 12.8672C38.5489 12.918 38.498 17.8808 38.498 23.8768V34.7679H49.5077H60.5173V23.7583V12.7487H49.6262C43.6302 12.7487 38.6674 12.7995 38.6166 12.8672Z" fill="#7EB900"/>
<path d="M14.2754 48.1487V59.1583H25.285H36.2946V48.1487V37.1391H25.285H14.2754V48.1487Z" fill="#00A3EE"/>
<path d="M38.5319 48.0979L38.5827 59.0737L49.5585 59.1245L60.5173 59.1584V48.1488V37.1391H49.5077H38.498L38.5319 48.0979Z" fill="#FFB800"/>
<path d="M78.5008 23.8171C77.7803 23.8171 77.0598 23.6371 76.3394 23.0971C75.6189 22.5571 75.2587 22.0171 74.8984 21.1171L76.1593 20.5771C76.3394 21.1171 76.5195 21.6571 77.0598 22.0171C77.4201 22.3771 77.9604 22.5571 78.5008 22.5571C79.0411 22.5571 79.5815 22.3771 79.9417 22.0171C80.3019 21.6571 80.6622 21.1171 80.6622 20.5771C80.6622 20.0371 80.4821 19.6771 79.9417 19.1371C79.5815 18.7771 79.0411 18.5971 78.3207 18.5971H77.4201V17.1571H78.3207C78.861 17.1571 79.4014 16.9771 79.7616 16.6171C80.1218 16.2571 80.3019 15.8971 80.3019 15.3571C80.3019 14.8171 80.1218 14.4571 79.7616 14.2771C79.4014 13.9171 78.861 13.9171 78.5008 13.9171C77.6002 13.9171 76.8797 14.4571 76.6996 15.3571L75.4388 14.8171C75.6189 14.2771 75.9791 13.7371 76.5195 13.1971C77.0598 12.6571 77.7803 12.4771 78.6809 12.4771C79.5815 12.4771 80.4821 12.8371 81.0224 13.3771C81.7429 13.9171 81.923 14.6371 81.923 15.5371C81.923 16.6171 81.3826 17.3371 80.4821 17.8771C81.0224 18.0571 81.3826 18.4171 81.7429 18.9571C82.1031 19.4971 82.2832 19.8571 82.2832 20.5771C82.2832 21.4771 81.923 22.3771 81.2025 22.9171C80.4821 23.4571 79.5815 23.8171 78.5008 23.8171Z" fill="white" stroke="white" stroke-width="0.2" stroke-miterlimit="10"/>
<path d="M83.0039 23.457L87.3267 12.117H88.9478L93.2706 23.457H91.6495L90.5688 20.397H85.8858L84.625 23.457H83.0039ZM86.246 19.137H90.0285L88.2273 14.097L86.246 19.137Z" fill="white" stroke="white" stroke-width="0.2" stroke-miterlimit="10"/>
<path d="M94.7129 23.4571V12.2971H98.8556C99.7562 12.2971 100.477 12.6571 101.197 13.1971C101.918 13.7371 102.098 14.4571 102.098 15.3571C102.098 15.8971 101.918 16.4371 101.737 16.7971C101.377 17.1571 101.017 17.5171 100.657 17.6971C101.197 17.8771 101.737 18.2371 102.098 18.5971C102.458 19.1371 102.638 19.6771 102.638 20.2171C102.638 21.1171 102.278 21.8371 101.557 22.5571C100.837 23.0971 100.116 23.4571 99.2158 23.4571H94.7129ZM96.1538 16.9771H98.8556C99.3959 16.9771 99.7562 16.7971 100.116 16.4371C100.477 16.0771 100.657 15.7171 100.657 15.1771C100.657 14.8171 100.477 14.2771 100.116 13.9171C99.7562 13.5571 99.3959 13.3771 98.8556 13.3771H96.1538V16.9771ZM96.1538 22.1971H99.0357C99.5761 22.1971 100.116 22.0171 100.477 21.6571C100.837 21.2971 101.017 20.7571 101.017 20.3971C101.017 19.8571 100.837 19.4971 100.477 19.1371C100.116 18.7771 99.5761 18.5971 99.0357 18.5971H96.1538V22.1971Z" fill="white" stroke="white" stroke-width="0.2" stroke-miterlimit="10"/>
<path d="M103.178 23.457L107.501 12.117H109.122L113.444 23.457H111.823L110.743 20.397H106.06L104.799 23.457H103.178ZM106.24 19.137H110.022L108.221 14.097L106.24 19.137Z" fill="white" stroke="white" stroke-width="0.2" stroke-miterlimit="10"/>
<path d="M114.705 23.4571V12.2971H116.146V17.1571H121.73V12.2971H123.171V23.4571H121.73V18.4171H116.146V23.4571H114.705Z" fill="white" stroke="white" stroke-width="0.2" stroke-miterlimit="10"/>
<path d="M129.474 23.4571H128.033V13.5571H124.791V12.2971H132.536V13.7371H129.294V23.4571H129.474Z" fill="white" stroke="white" stroke-width="0.2" stroke-miterlimit="10"/>
<path d="M132.176 23.457L136.499 12.117H138.12L142.442 23.457H140.821L139.741 20.397H135.058L133.797 23.457H132.176ZM135.418 19.137H139.2L137.399 14.097L135.418 19.137Z" fill="white" stroke="white" stroke-width="0.2" stroke-miterlimit="10"/>
<path d="M151.089 18.4171V23.4571H149.648V18.2371L145.145 23.4571H143.344L148.027 18.0571L143.524 12.2971H145.325L149.648 17.6971V12.2971H151.089V17.6971L155.412 12.2971H157.213L152.53 18.0571L157.213 23.4571H155.412L151.089 18.4171Z" fill="white" stroke="white" stroke-width="0.2" stroke-miterlimit="10"/>
<path d="M167.48 12.2971V23.4571H166.039V16.4371V14.2771L160.275 23.4571H158.834V12.2971H160.275V18.9571V21.1171L165.678 12.2971H167.48Z" fill="white" stroke="white" stroke-width="0.2" stroke-miterlimit="10"/>
<path d="M173.603 23.4571H172.162V13.5571H168.92V12.2971H176.665V13.7371H173.423V23.4571H173.603Z" fill="white" stroke="white" stroke-width="0.2" stroke-miterlimit="10"/>
<path d="M187.112 12.2971V23.4571H185.671V16.4371V14.2771L179.908 23.4571H178.467V12.2971H179.908V18.9571V21.1171L185.311 12.2971H187.112Z" fill="white" stroke="white" stroke-width="0.2" stroke-miterlimit="10"/>
<path d="M195.757 23.8171C195.036 23.8171 194.316 23.6371 193.595 23.0971C192.875 22.5571 192.515 22.0171 192.154 21.1171L193.415 20.5771C193.595 21.1171 193.775 21.6571 194.316 22.0171C194.676 22.3771 195.216 22.5571 195.757 22.5571C196.297 22.5571 196.837 22.3771 197.198 22.0171C197.558 21.6571 197.918 21.1171 197.918 20.5771C197.918 20.0371 197.738 19.6771 197.198 19.1371C196.837 18.7771 196.297 18.5971 195.577 18.5971H194.676V17.1571H195.577C196.117 17.1571 196.657 16.9771 197.017 16.6171C197.378 16.2571 197.558 15.8971 197.558 15.3571C197.558 14.8171 197.378 14.4571 197.017 14.2771C196.657 13.9171 196.117 13.9171 195.757 13.9171C194.856 13.9171 194.136 14.4571 193.955 15.3571L192.695 14.8171C192.875 14.2771 193.235 13.7371 193.775 13.1971C194.316 12.6571 195.036 12.4771 195.937 12.4771C196.837 12.4771 197.738 12.8371 198.278 13.3771C198.999 13.9171 199.179 14.6371 199.179 15.5371C199.179 16.6171 198.639 17.3371 197.738 17.8771C198.278 18.0571 198.639 18.4171 198.999 18.9571C199.359 19.4971 199.539 19.8571 199.539 20.5771C199.539 21.4771 199.179 22.3771 198.458 22.9171C197.558 23.4571 196.837 23.8171 195.757 23.8171Z" fill="white" stroke="white" stroke-width="0.2" stroke-miterlimit="10"/>
<path d="M203.081 32.0326C201.458 32.388 199.743 33.5931 199.017 34.9218C198.384 36.096 198.137 37.3011 198.137 39.1705V40.8237L196.638 40.87L195.124 40.9164L195.078 42.6468L195.031 44.3926H196.592H198.137V51.7313V59.0701H200.3H202.463V51.7313V44.3926H205.63H208.797V49.0585C208.813 54.6359 208.921 55.6865 209.601 57.0616C210.172 58.174 211.068 58.9156 212.242 59.24C213.231 59.5027 215.379 59.4563 216.491 59.1473L217.449 58.8692V57.1388V55.4084L216.568 55.702C215.147 56.1809 214.035 55.8874 213.478 54.8522C213.231 54.4196 213.2 53.7862 213.154 49.3675L213.108 44.3926H215.271H217.449V42.6159V40.8391H215.286H213.123V38.1972V35.5552L212.706 35.6634C212.459 35.7097 211.485 36.0033 210.543 36.2968L208.797 36.8376V38.877V40.9164L205.614 40.87L202.432 40.8237L202.478 39.016C202.54 37.0384 202.741 36.4668 203.575 35.8488C204.147 35.4316 205.475 35.3235 206.387 35.6325L207.098 35.8797V34.0411C207.098 32.4807 207.067 32.2026 206.835 32.1253C206.372 31.9399 203.791 31.8936 203.081 32.0326Z" fill="white"/>
<path d="M106.889 33.5621C106.085 34.0565 105.699 34.7363 105.699 35.6788C105.699 37.1929 106.843 38.1662 108.496 38.0272C109.902 37.9036 110.767 37.0075 110.767 35.6633C110.767 34.7363 110.458 34.1956 109.608 33.6085C108.944 33.1604 107.584 33.1295 106.889 33.5621Z" fill="white"/>
<path d="M74.5371 46.4011V59.0701H76.6229H78.7086L78.6777 49.3366C78.6468 43.9754 78.6777 39.6031 78.724 39.6031C78.7704 39.6031 80.5626 43.9909 82.7256 49.3366L86.6499 59.0855L88.1949 59.0392L89.7399 58.9928L93.556 49.3675C95.6572 44.0681 97.4185 39.6958 97.4648 39.6495C97.5112 39.5877 97.5575 43.9445 97.5575 49.3057V59.0701H99.7205H101.884V46.4011V33.7321H98.9017H95.9198L92.3818 42.415C90.4351 47.2045 88.7047 51.4223 88.5502 51.7931L88.2412 52.4884L86.8971 49.0894C86.1555 47.2354 84.4869 43.0176 83.1891 39.7113L80.8252 33.7321H77.6735H74.5371V46.4011Z" fill="white"/>
<path d="M120.423 40.7619C117.287 41.4726 114.83 43.7128 113.78 46.8646C113.301 48.2551 113.177 51.2987 113.533 52.7974C114.089 55.1303 115.773 57.386 117.72 58.4057C120.13 59.6572 123.73 59.7808 126.403 58.7302L127.299 58.3748L127.376 56.3972C127.422 55.3157 127.438 54.4351 127.422 54.4351C127.407 54.4351 126.943 54.6823 126.387 54.9758C123.807 56.4127 120.918 56.1655 119.234 54.3887C117.967 53.06 117.472 51.1442 117.797 48.8885C118.106 46.741 119.342 45.0724 121.134 44.4081C122.818 43.7746 125.213 44.0682 126.758 45.1188C127.051 45.3042 127.33 45.4741 127.376 45.4741C127.422 45.4741 127.438 44.5471 127.407 43.4038L127.36 41.3335L126.325 40.9936C124.981 40.5456 121.937 40.422 120.423 40.7619Z" fill="white"/>
<path d="M138.81 40.7C137.295 40.9163 136.106 41.7969 135.349 43.2647L134.963 44.0063L134.947 42.4149V40.8236L132.83 40.8699L130.698 40.9163L130.652 49.9854L130.621 59.07H132.769H134.932L134.978 53.4616L135.024 47.8688L135.457 46.9418C136.137 45.5049 136.925 44.7788 138.099 44.5625C138.887 44.4234 140.169 44.5934 140.849 44.9487L141.282 45.1805V43.0947C141.282 41.5961 141.22 40.9781 141.096 40.8854C140.772 40.7 139.551 40.5918 138.81 40.7Z" fill="white"/>
<path d="M148.403 40.7619C145.05 41.5189 142.671 43.8673 141.821 47.2508C141.466 48.6568 141.45 51.4841 141.806 52.9519C142.532 56.0264 144.849 58.3594 147.955 59.1782C149.284 59.5181 151.987 59.5181 153.409 59.1473C156.174 58.4521 158.414 56.5054 159.372 54.0025C159.929 52.4729 160.176 50.8198 160.068 49.1048C159.913 46.3084 159.172 44.5008 157.596 42.9094C156.607 41.9361 155.896 41.488 154.413 40.9627C153.27 40.5456 149.84 40.4374 148.403 40.7619ZM152.945 44.4544C153.98 44.9179 154.907 45.9994 155.278 47.1272C155.51 47.8379 155.572 48.4714 155.572 50.1091C155.556 51.9167 155.51 52.3184 155.201 53.0909C154.753 54.2342 154.104 54.9604 153.115 55.4702C152.435 55.8256 152.126 55.8719 150.937 55.8719C149.407 55.8719 148.573 55.6093 147.646 54.8368C146.194 53.5853 145.529 50.6035 146.147 47.977C146.58 46.1848 147.383 45.1033 148.774 44.4544C149.871 43.9291 151.848 43.9291 152.945 44.4544Z" fill="white"/>
<path d="M166.666 40.7618C164.842 41.2717 163.22 42.554 162.587 43.9754C162.077 45.1341 162.077 47.2353 162.602 48.3323C163.236 49.6301 163.946 50.1863 166.681 51.4995C168.056 52.1639 169.307 52.8591 169.462 53.0291C169.864 53.4771 169.972 54.6359 169.647 55.1303C168.767 56.4744 165.491 56.3354 163.035 54.8367L162.139 54.296V56.3817V58.452L162.695 58.6838C164.41 59.3945 167.716 59.6262 169.524 59.1627C171.517 58.6529 172.985 57.5714 173.726 56.0573C174.035 55.4084 174.097 55.053 174.097 53.817C174.097 52.6119 174.051 52.2411 173.772 51.7158C173 50.2481 172.011 49.5065 169.23 48.255C167.191 47.3589 166.635 46.88 166.511 45.953C166.217 43.8364 169.416 43.2184 172.536 44.7942L173.278 45.1805L173.232 43.2029L173.185 41.2408L172.258 40.9472C170.991 40.5455 167.793 40.4374 166.666 40.7618Z" fill="white"/>
<path d="M182.764 40.8236C180.586 41.3644 178.685 42.6776 177.573 44.408C175.966 46.9264 175.611 51.036 176.739 54.0797C178.129 57.8031 182.069 59.9352 186.534 59.379C189.083 59.07 190.474 58.4366 192.034 56.8452C193.919 54.9449 194.645 52.9827 194.645 49.8001C194.645 46.6946 193.919 44.6552 192.219 42.9403C191.076 41.8124 190.087 41.2562 188.465 40.8391C186.936 40.4374 184.309 40.4374 182.764 40.8236ZM187.724 44.5007C188.589 44.9642 189.392 45.8912 189.809 46.9573C190.103 47.7298 190.165 48.1624 190.165 49.8773C190.18 53.0445 189.531 54.5277 187.724 55.4393C186.905 55.841 186.642 55.8873 185.483 55.8873C183.815 55.8719 182.78 55.4702 181.914 54.4814C180.91 53.3226 180.617 52.3647 180.601 50.109C180.601 47.0191 181.296 45.505 183.181 44.5471C184.108 44.0836 184.216 44.0681 185.622 44.1145C186.735 44.1608 187.245 44.2535 187.724 44.5007Z" fill="white"/>
<path d="M106.055 49.9545V59.07H108.218H110.381L110.35 49.9854L110.303 40.9163L108.187 40.8699L106.055 40.8236V49.9545Z" fill="white"/>
</g>
<defs>
<clipPath id="clip0">
<rect x="0.509766" y="0.0570679" width="243.158" height="72" fill="white"/>
</clipPath>
</defs>
</svg>
