<svg width="25" height="25" viewBox="0 0 25 25" fill="none" xmlns="http://www.w3.org/2000/svg">
<path fill-rule="evenodd" clip-rule="evenodd" d="M12.3379 4.5C7.33789 4.5 3.06789 7.61 1.33789 12C3.06789 16.39 7.33789 19.5 12.3379 19.5C17.3379 19.5 21.6079 16.39 23.3379 12C21.6079 7.61 17.3379 4.5 12.3379 4.5ZM12.3379 17C9.57789 17 7.33789 14.76 7.33789 12C7.33789 9.24 9.57789 7 12.3379 7C15.0979 7 17.3379 9.24 17.3379 12C17.3379 14.76 15.0979 17 12.3379 17ZM12.3379 9C10.6779 9 9.33789 10.34 9.33789 12C9.33789 13.66 10.6779 15 12.3379 15C13.9979 15 15.3379 13.66 15.3379 12C15.3379 10.34 13.9979 9 12.3379 9Z" fill="#E0E0E0"/>
</svg>
