<svg width="25" height="25" viewBox="0 0 25 25" fill="none" xmlns="http://www.w3.org/2000/svg">
<g clip-path="url(#clip0)">
<path d="M19.6435 12.503C18.0927 12.503 16.831 13.7647 16.831 15.3155C16.831 16.8663 18.0927 18.128 19.6435 18.128H23.6279C23.6438 18.128 23.6593 18.1264 23.675 18.1256C23.6906 18.1263 23.7059 18.1279 23.7216 18.1279C24.2394 18.1279 24.6591 17.7082 24.6591 17.1904V9.83107C24.6591 8.58298 24.0457 7.47603 23.105 6.79404L19.9156 1.56187C19.7856 1.34849 19.5757 1.19587 19.3326 1.13793C19.0896 1.0799 18.8334 1.12138 18.621 1.2531L16.269 2.71166L15.2083 0.916634C15.0808 0.700822 14.8722 0.545104 14.629 0.484167C14.3859 0.423229 14.1285 0.462276 13.9143 0.592401L4.88303 6.08108H3.47167C2.96257 6.08108 2.54693 5.67317 2.53446 5.16702C2.54693 4.66086 2.96257 4.25296 3.47167 4.25296H5.20605C5.72383 4.25296 6.14354 3.83324 6.14354 3.31546C6.14354 2.79768 5.72383 2.37796 5.20605 2.37796H3.47167C2.14521 2.37796 1.03038 3.30111 0.735586 4.53866C0.686555 4.65238 0.65918 4.77753 0.65918 4.9092V5.14358V5.19045V20.706C0.65918 22.7738 2.34143 24.456 4.40917 24.456H20.9091C22.5259 24.456 23.9557 23.4261 24.467 21.8933C24.6309 21.4022 24.3655 20.8712 23.8744 20.7074C23.3832 20.5435 22.8522 20.8088 22.6884 21.3C22.4328 22.0662 21.7178 22.581 20.9091 22.581H4.40917C3.3753 22.581 2.53418 21.7399 2.53418 20.706V7.79525C2.82757 7.89931 3.14308 7.95607 3.47167 7.95607H20.9091C21.943 7.95607 22.7841 8.7972 22.7841 9.83107V12.503H19.6435ZM22.7841 16.2529H19.6435C19.1266 16.253 18.706 15.8324 18.706 15.3154C18.706 14.7985 19.1266 14.3779 19.6435 14.3779H22.7841V16.2529ZM8.49329 6.08112L14.077 2.68771L15.0753 4.37713C15.0944 4.4233 15.1165 4.46881 15.1437 4.51269C15.1641 4.54555 15.1867 4.57616 15.2102 4.6056L16.0821 6.08112H8.49329ZM18.26 6.08108L17.2231 4.32627L18.8063 3.34447L20.4745 6.08108H18.26Z" fill="#39D8D8"/>
</g>
<defs>
<clipPath id="clip0">
<rect x="0.65918" y="0.455566" width="24" height="24" fill="white"/>
</clipPath>
</defs>
</svg>
