<svg width="32" height="33" viewBox="0 0 32 33" fill="none" xmlns="http://www.w3.org/2000/svg">
<path fill-rule="evenodd" clip-rule="evenodd" d="M6.18794 24.3372C5.807 25.0039 6.28836 25.8333 7.05619 25.8333L24.9432 25.8333C25.711 25.8333 26.1924 25.0039 25.8114 24.3372L16.8679 8.6861C16.484 8.01429 15.5153 8.01429 15.1314 8.6861L6.18794 24.3372Z" fill="#F9C45C"/>
<path d="M15.9995 23.6614C16.6185 23.6614 17.1221 23.1575 17.1221 22.5381C17.1221 21.9192 16.6185 21.4158 15.9995 21.4158C15.3805 21.4158 14.8769 21.9192 14.8769 22.5381C14.8769 23.1575 15.3805 23.6614 15.9995 23.6614Z" fill="white"/>
<path d="M15.9994 19.7316C16.4645 19.7316 16.8415 19.3545 16.8415 18.8894L16.8415 13.8368C16.8415 13.3717 16.4645 12.9947 15.9994 12.9947C15.5343 12.9947 15.1573 13.3717 15.1573 13.8368L15.1573 18.8894C15.1573 19.3545 15.5343 19.7316 15.9994 19.7316Z" fill="white"/>
</svg>
