<svg width="40" height="40" viewBox="0 0 40 40" fill="none" xmlns="http://www.w3.org/2000/svg">
<path d="M40 33.7378C40 37.1963 37.1963 40 33.7378 40H6.26223C2.80368 40 0 37.1963 0 33.7378V8.1409L8.1409 0H33.7378C37.1963 0 40 2.80368 40 6.26223V33.7378Z" fill="#E24C3F"/>
<path opacity="0.2" d="M0 12.5038V8.14111H4.34184L0 12.5038Z" fill="#5D5D5D"/>
<path d="M0 8.1409H5.42732C6.91976 8.1409 8.1409 6.94059 8.1409 5.44814V0L0 8.1409Z" fill="#FF7063"/>
<path d="M6.70422 26.9056V13.8081H13.187C13.8024 13.8081 14.349 13.9088 14.8266 14.1096C15.3039 14.3107 15.6997 14.5903 16.0139 14.9483C16.3278 15.3063 16.5666 15.7336 16.73 16.2298C16.8931 16.7262 16.9749 17.2757 16.9749 17.8787C16.9749 18.4818 16.8963 19.0472 16.7393 19.5748C16.5821 20.1024 16.3497 20.558 16.0422 20.9411C15.734 21.3244 15.3416 21.626 14.8643 21.8457C14.3867 22.0657 13.8277 22.1755 13.187 22.1755H8.8337V26.9057H6.70422V26.9056ZM8.83377 15.768V20.1778H12.4522C13.2813 20.1778 13.8873 19.9926 14.2707 19.6219C14.6537 19.2515 14.8454 18.6702 14.8454 17.8786C14.8454 17.1248 14.6412 16.5848 14.233 16.2579C13.8246 15.9314 13.231 15.7679 12.4522 15.7679H8.83377V15.768Z" fill="#FF7063"/>
<path d="M24.6451 14.1469L26.6993 13.5815V24.738C26.6993 24.9768 26.7115 25.1903 26.7368 25.3788C26.7619 25.5672 26.7934 25.7433 26.831 25.9065C26.8812 26.0572 26.9377 26.2175 27.0007 26.387C27.0634 26.5567 27.1449 26.7295 27.2456 26.9053H25.0784C25.0031 26.7798 24.9277 26.6102 24.8523 26.3965C24.8018 26.1703 24.7642 25.9695 24.7392 25.7934C24.3623 26.1703 23.9318 26.4878 23.4482 26.7451C22.9645 27.0024 22.4462 27.1314 21.8935 27.1314C21.2401 27.1314 20.6654 27.0246 20.1692 26.8111C19.6727 26.5976 19.2552 26.3022 18.9159 25.9254C18.5768 25.5485 18.3224 25.0994 18.1527 24.5779C17.9832 24.0568 17.8983 23.4943 17.8983 22.8912V21.9866C17.8983 20.3913 18.3191 19.1913 19.161 18.3872C20.0025 17.5833 21.2276 17.1811 22.8358 17.1811C23.4513 17.1811 24.0542 17.3006 24.645 17.5391L24.6451 14.1469ZM24.6451 19.4425C24.3685 19.2794 24.0514 19.1664 23.6934 19.1033C23.3353 19.0406 22.999 19.0091 22.6851 19.0091C22.1825 19.0091 21.7584 19.0783 21.4131 19.2163C21.0674 19.3548 20.7847 19.5494 20.565 19.8006C20.345 20.052 20.1882 20.3535 20.0938 20.7051C19.9996 21.057 19.9525 21.4402 19.9525 21.8547V22.552C19.9525 22.9039 19.9775 23.2464 20.0279 23.5791C20.0779 23.9121 20.1754 24.2042 20.32 24.4554C20.4642 24.7069 20.6622 24.9109 20.9135 25.0678C21.1647 25.2251 21.4913 25.3034 21.8935 25.3034C22.1574 25.3034 22.4179 25.2595 22.6757 25.1714C22.933 25.0837 23.1813 24.9675 23.4201 24.8229C23.6586 24.6785 23.8818 24.5184 24.089 24.3422C24.2963 24.1664 24.4816 23.9842 24.6451 23.7958V19.4425Z" fill="#FF7063"/>
<path d="M29.3192 16.3518C29.3192 16.0003 29.3663 15.6578 29.4607 15.3247C29.5548 14.992 29.7024 14.6967 29.9034 14.439C30.1043 14.1817 30.3682 13.9743 30.6949 13.8172C31.0214 13.6602 31.4109 13.5815 31.8634 13.5815C32.0769 13.5815 32.3185 13.6036 32.5889 13.6475C32.859 13.6917 33.0945 13.745 33.2956 13.8078V15.4284H32.5418C32.1522 15.4284 31.8602 15.5353 31.6656 15.7488C31.4707 15.9626 31.3735 16.2576 31.3735 16.6345V17.4072H33.2016L32.655 19.1033H31.3735V26.9053H29.3194V19.1033H28.1322V17.4072H29.3194V16.3518H29.3192Z" fill="#FF7063"/>
<path d="M6.70422 26.4359V13.3384H13.187C13.8024 13.3384 14.349 13.439 14.8266 13.6399C15.3039 13.841 15.6997 14.1205 16.0139 14.4786C16.3278 14.8366 16.5666 15.2639 16.73 15.7601C16.8931 16.2565 16.9749 16.8059 16.9749 17.409C16.9749 18.012 16.8963 18.5774 16.7393 19.105C16.5821 19.6327 16.3497 20.0883 16.0422 20.4714C15.734 20.8547 15.3416 21.1563 14.8643 21.376C14.3867 21.596 13.8277 21.7057 13.187 21.7057H8.8337V26.436H6.70422V26.4359ZM8.83377 15.2983V19.7081H12.4522C13.2813 19.7081 13.8873 19.5229 14.2707 19.1522C14.6537 18.7817 14.8454 18.2005 14.8454 17.4089C14.8454 16.6551 14.6412 16.1151 14.233 15.7882C13.8246 15.4617 13.231 15.2982 12.4522 15.2982H8.83377V15.2983Z" fill="white"/>
<path d="M24.6451 13.6772L26.6993 13.1118V24.2683C26.6993 24.5071 26.7115 24.7206 26.7368 24.9091C26.7619 25.0975 26.7934 25.2736 26.831 25.4367C26.8812 25.5875 26.9377 25.7477 27.0007 25.9173C27.0634 26.0869 27.1449 26.2598 27.2456 26.4356H25.0784C25.0031 26.3101 24.9277 26.1405 24.8523 25.9268C24.8018 25.7005 24.7642 25.4998 24.7392 25.3237C24.3623 25.7005 23.9318 26.018 23.4482 26.2754C22.9645 26.5327 22.4462 26.6617 21.8935 26.6617C21.2401 26.6617 20.6654 26.5549 20.1692 26.3413C19.6727 26.1279 19.2552 25.8325 18.9159 25.4557C18.5768 25.0788 18.3224 24.6297 18.1527 24.1082C17.9832 23.587 17.8983 23.0245 17.8983 22.4215V21.5169C17.8983 19.9215 18.3191 18.7216 19.161 17.9175C20.0025 17.1135 21.2276 16.7113 22.8358 16.7113C23.4513 16.7113 24.0542 16.8309 24.645 17.0694L24.6451 13.6772ZM24.6451 18.9728C24.3685 18.8097 24.0514 18.6966 23.6934 18.6335C23.3353 18.5708 22.999 18.5394 22.6851 18.5394C22.1825 18.5394 21.7584 18.6086 21.4131 18.7466C21.0674 18.885 20.7847 19.0796 20.565 19.3308C20.345 19.5823 20.1882 19.8838 20.0938 20.2354C19.9996 20.5873 19.9525 20.9704 19.9525 21.385V22.0823C19.9525 22.4342 19.9775 22.7766 20.0279 23.1094C20.0779 23.4424 20.1754 23.7345 20.32 23.9856C20.4642 24.2371 20.6622 24.4411 20.9135 24.5981C21.1647 24.7553 21.4913 24.8337 21.8935 24.8337C22.1574 24.8337 22.4179 24.7898 22.6757 24.7017C22.933 24.614 23.1813 24.4977 23.4201 24.3531C23.6586 24.2088 23.8818 24.0486 24.089 23.8725C24.2963 23.6967 24.4816 23.5145 24.6451 23.3261V18.9728Z" fill="white"/>
<path d="M29.3192 15.8821C29.3192 15.5305 29.3663 15.1881 29.4607 14.855C29.5548 14.5223 29.7024 14.227 29.9034 13.9693C30.1043 13.712 30.3682 13.5046 30.6949 13.3474C31.0214 13.1905 31.4109 13.1118 31.8634 13.1118C32.0769 13.1118 32.3185 13.1339 32.5889 13.1778C32.859 13.222 33.0945 13.2753 33.2956 13.338V14.9587H32.5418C32.1522 14.9587 31.8602 15.0656 31.6656 15.2791C31.4707 15.4929 31.3735 15.7879 31.3735 16.1648V16.9375H33.2016L32.655 18.6335H31.3735V26.4356H29.3194V18.6335H28.1322V16.9375H29.3194V15.8821H29.3192Z" fill="white"/>
</svg>
