<svg width="160" height="160" viewBox="0 0 160 160" fill="none" xmlns="http://www.w3.org/2000/svg">
<g filter="url(#filter0_d)">
<path fill-rule="evenodd" clip-rule="evenodd" d="M80.0007 13.3333C54.2007 13.3333 33.334 34.2 33.334 60C33.334 87.8 62.8006 126.133 74.934 140.733C77.6007 143.933 82.4673 143.933 85.134 140.733C97.2007 126.133 126.667 87.8 126.667 60C126.667 34.2 105.801 13.3333 80.0007 13.3333Z" fill="#39D8D8"/>
<circle cx="79.9993" cy="63.3333" r="37.3333" fill="#39D8D8"/>
<path fill-rule="evenodd" clip-rule="evenodd" d="M60.4426 67.4679V39.5478C65.3128 43.1794 72.2716 45.4521 79.9979 45.4521C87.7244 45.4521 94.6835 43.1793 99.5537 39.5475V68.3411H99.5383C99.1299 78.7808 90.5376 87.1188 79.9979 87.1188C69.4581 87.1188 60.8659 78.7808 60.4575 68.3411H60.4426V67.6587L60.4423 67.5633L60.4426 67.4679ZM71.0258 66.7855C74.9531 66.7855 78.1369 63.6018 78.1369 59.6744C78.1369 55.7471 74.9531 52.5633 71.0258 52.5633C67.0984 52.5633 63.9147 55.7471 63.9147 59.6744C63.9147 63.6018 67.0984 66.7855 71.0258 66.7855ZM71.0256 64.8966C73.9098 64.8966 76.2478 62.5585 76.2478 59.6744C76.2478 56.7902 73.9098 54.4521 71.0256 54.4521C68.1415 54.4521 65.8034 56.7902 65.8034 59.6744C65.8034 62.5585 68.1415 64.8966 71.0256 64.8966ZM74.0814 59.6744C74.0814 61.3619 72.7134 62.7299 71.0258 62.7299C69.3383 62.7299 67.9703 61.3619 67.9703 59.6744C67.9703 57.9869 69.3383 56.6188 71.0258 56.6188C72.7134 56.6188 74.0814 57.9869 74.0814 59.6744ZM88.9704 66.7855C92.8977 66.7855 96.0815 63.6018 96.0815 59.6744C96.0815 55.7471 92.8977 52.5633 88.9704 52.5633C85.043 52.5633 81.8593 55.7471 81.8593 59.6744C81.8593 63.6018 85.043 66.7855 88.9704 66.7855ZM88.9698 64.8966C91.854 64.8966 94.1921 62.5585 94.1921 59.6744C94.1921 56.7902 91.854 54.4521 88.9698 54.4521C86.0857 54.4521 83.7476 56.7902 83.7476 59.6744C83.7476 62.5585 86.0857 64.8966 88.9698 64.8966ZM92.0256 59.6744C92.0256 61.3619 90.6576 62.7299 88.9701 62.7299C87.2825 62.7299 85.9145 61.3619 85.9145 59.6744C85.9145 57.9869 87.2825 56.6188 88.9701 56.6188C90.6576 56.6188 92.0256 57.9869 92.0256 59.6744ZM79.9979 64.73L82.211 68.5633H77.7847L79.9979 64.73ZM101.215 67.3589L101.216 67.4373C101.216 67.4793 101.216 67.5214 101.216 67.5634C101.216 72.2422 99.5734 76.5371 96.8328 79.9028C97.1532 80.0394 97.4895 80.1364 97.8398 80.1899C101.108 80.6891 104.35 77.209 105.082 72.4168C105.759 67.9893 104.056 63.9909 101.215 63.0141V67.3589ZM63.1606 79.9018C60.4551 76.5762 58.8202 72.3436 58.7817 67.73H58.7805V63.0136C55.9418 63.9896 54.2395 67.9885 54.9154 72.4166C55.647 77.2088 58.887 80.689 62.1523 80.1897C62.503 80.1361 62.8398 80.0388 63.1606 79.9018Z" fill="white"/>
</g>
<defs>
<filter id="filter0_d" x="-4" y="0" width="168" height="168" filterUnits="userSpaceOnUse" color-interpolation-filters="sRGB">
<feFlood flood-opacity="0" result="BackgroundImageFix"/>
<feColorMatrix in="SourceAlpha" type="matrix" values="0 0 0 0 0 0 0 0 0 0 0 0 0 0 0 0 0 0 127 0"/>
<feOffset dy="4"/>
<feGaussianBlur stdDeviation="2"/>
<feColorMatrix type="matrix" values="0 0 0 0 0 0 0 0 0 0 0 0 0 0 0 0 0 0 0.25 0"/>
<feBlend mode="normal" in2="BackgroundImageFix" result="effect1_dropShadow"/>
<feBlend mode="normal" in="SourceGraphic" in2="effect1_dropShadow" result="shape"/>
</filter>
</defs>
</svg>
