<svg width="13" height="13" viewBox="0 0 13 13" fill="none" xmlns="http://www.w3.org/2000/svg">
<path fill-rule="evenodd" clip-rule="evenodd" d="M6.65332 1.3269C4.71832 1.3269 3.15332 2.8919 3.15332 4.8269C3.15332 6.9119 5.36332 9.7869 6.27332 10.8819C6.47332 11.1219 6.83832 11.1219 7.03832 10.8819C7.94332 9.7869 10.1533 6.9119 10.1533 4.8269C10.1533 2.8919 8.58832 1.3269 6.65332 1.3269ZM6.65332 6.0769C5.96332 6.0769 5.40332 5.5169 5.40332 4.8269C5.40332 4.1369 5.96332 3.5769 6.65332 3.5769C7.34332 3.5769 7.90332 4.1369 7.90332 4.8269C7.90332 5.5169 7.34332 6.0769 6.65332 6.0769Z" fill="#FFDC3A"/>
</svg>
