<svg width="25" height="25" viewBox="0 0 25 25" fill="none" xmlns="http://www.w3.org/2000/svg">
<path fill-rule="evenodd" clip-rule="evenodd" d="M12.3379 7.25005C15.0979 7.25005 17.3379 9.49005 17.3379 12.2501C17.3379 12.7601 17.2379 13.2501 17.0979 13.7101L20.1579 16.7701C21.5479 15.5401 22.6479 14.0001 23.3379 12.2401C21.6079 7.86005 17.3379 4.75005 12.3379 4.75005C11.0679 4.75005 9.84789 4.95005 8.69789 5.32005L10.8679 7.49005C11.3379 7.35005 11.8279 7.25005 12.3379 7.25005ZM3.04789 3.91005C2.65789 4.30005 2.65789 4.93005 3.04789 5.32005L5.01789 7.29005C3.39789 8.58005 2.10789 10.2801 1.33789 12.2501C3.06789 16.6401 7.33789 19.7501 12.3379 19.7501C13.8579 19.7501 15.3079 19.4501 16.6479 18.9301L19.3679 21.6501C19.7579 22.0401 20.3879 22.0401 20.7779 21.6501C21.1679 21.2601 21.1679 20.6301 20.7779 20.2401L4.46789 3.91005C4.07789 3.52005 3.43789 3.52005 3.04789 3.91005ZM12.3379 17.2501C9.57789 17.2501 7.33789 15.0101 7.33789 12.2501C7.33789 11.4801 7.51789 10.7501 7.82789 10.1101L9.39789 11.6801C9.36789 11.8601 9.33789 12.0501 9.33789 12.2501C9.33789 13.9101 10.6779 15.2501 12.3379 15.2501C12.5379 15.2501 12.7179 15.2201 12.9079 15.1801L14.4779 16.7501C13.8279 17.0701 13.1079 17.2501 12.3379 17.2501ZM15.3079 11.9201C15.1579 10.5201 14.0579 9.43005 12.6679 9.28005L15.3079 11.9201Z" fill="#E0E0E0"/>
</svg>
