<svg width="153" height="153" viewBox="0 0 153 153" fill="none" xmlns="http://www.w3.org/2000/svg">
<path d="M92.1169 92.5H60.9775C58.3962 92.5 56.2969 90.4007 56.2969 87.8194V68.837C56.2969 66.2557 58.3962 64.1564 60.9775 64.1564H67.3315L67.8877 62.2802C68.1146 61.2535 69.0532 60.5 70.157 60.5H82.9382C84.0109 60.5 84.9602 61.2497 85.2115 62.2895L85.2263 62.3535L85.7333 64.1563H92.1176C94.6989 64.1563 96.7982 66.2556 96.7982 68.8369V87.8191C96.7975 90.4007 94.6975 92.5 92.1169 92.5ZM60.9775 65.7166C59.2565 65.7166 57.8571 67.1162 57.8571 68.837V87.8193C57.8571 89.5402 59.2567 90.9396 60.9775 90.9396H92.1169C93.8379 90.9396 95.2373 89.5401 95.2373 87.8193V68.837C95.2373 67.1161 93.8377 65.7166 92.1169 65.7166H84.5515L83.6973 62.6703C83.6186 62.3161 83.2994 62.0595 82.9375 62.0595H70.1562C69.7888 62.0595 69.4767 62.3107 69.3963 62.6712L68.4946 65.7166H60.9775ZM76.5484 87.7842C71.0885 87.7842 66.6465 83.343 66.6465 77.8839C66.6465 72.424 71.0884 67.9829 76.5484 67.9829C82.0068 67.9829 86.448 72.4247 86.448 77.8839C86.4479 83.3423 82.0067 87.7842 76.5484 87.7842ZM76.5484 69.5422C71.9489 69.5422 68.2068 73.2836 68.2068 77.8832C68.2068 82.4827 71.949 86.2232 76.5484 86.2232C81.1471 86.2232 84.8877 82.4818 84.8877 77.8832C84.8876 73.2836 81.1462 69.5422 76.5484 69.5422ZM91.1098 68.6123C90.3141 68.6123 89.6704 69.2575 89.6704 70.0517C89.6704 70.8466 90.314 71.4909 91.1098 71.4909C91.9047 71.4909 92.5483 70.8465 92.5483 70.0517C92.5476 69.2575 91.9039 68.6123 91.1098 68.6123Z" fill="#39D8D8" stroke="#39D8D8"/>
<rect x="1.04883" y="1" width="150.998" height="151" rx="75.499" stroke="#BDBDBD" stroke-dasharray="8 8 8 8"/>
</svg>
