<svg width="178" height="49" viewBox="0 0 178 49" fill="none" xmlns="http://www.w3.org/2000/svg">
<circle cx="24.252" cy="24.5" r="24" fill="#39D8D8"/>
<path fill-rule="evenodd" clip-rule="evenodd" d="M11.6819 27.7193V9.20911C14.8127 11.5439 19.2864 13.005 24.2535 13.005C29.2204 13.005 33.6939 11.544 36.8247 9.20937V27.133L36.825 27.2193L36.8247 27.3055V27.7193H36.8153C36.5527 34.4305 31.0291 39.7907 24.2536 39.7907C17.478 39.7907 11.9544 34.4305 11.6919 27.7193H11.6819ZM18.4855 26.7193C21.0102 26.7193 23.0569 24.6726 23.0569 22.1479C23.0569 19.6231 21.0102 17.5764 18.4855 17.5764C15.9608 17.5764 13.9141 19.6231 13.9141 22.1479C13.9141 24.6726 15.9608 26.7193 18.4855 26.7193ZM18.4863 25.505C20.3404 25.505 21.8435 24.0019 21.8435 22.1478C21.8435 20.2937 20.3404 18.7907 18.4863 18.7907C16.6322 18.7907 15.1292 20.2937 15.1292 22.1478C15.1292 24.0019 16.6322 25.505 18.4863 25.505ZM20.4509 22.1478C20.4509 23.2327 19.5714 24.1121 18.4866 24.1121C17.4017 24.1121 16.5223 23.2327 16.5223 22.1478C16.5223 21.063 17.4017 20.1835 18.4866 20.1835C19.5714 20.1835 20.4509 21.063 20.4509 22.1478ZM30.0215 26.7193C32.5463 26.7193 34.593 24.6726 34.593 22.1479C34.593 19.6231 32.5463 17.5764 30.0215 17.5764C27.4968 17.5764 25.4501 19.6231 25.4501 22.1479C25.4501 24.6726 27.4968 26.7193 30.0215 26.7193ZM30.0203 25.505C31.8744 25.505 33.3774 24.0019 33.3774 22.1478C33.3774 20.2937 31.8744 18.7907 30.0203 18.7907C28.1662 18.7907 26.6632 20.2937 26.6632 22.1478C26.6632 24.0019 28.1662 25.505 30.0203 25.505ZM31.9858 22.1478C31.9858 23.2327 31.1063 24.1121 30.0215 24.1121C28.9367 24.1121 28.0572 23.2327 28.0572 22.1478C28.0572 21.063 28.9367 20.1835 30.0215 20.1835C31.1063 20.1835 31.9858 21.063 31.9858 22.1478ZM24.2533 25.3979L25.676 27.8621H22.8305L24.2533 25.3979ZM37.8915 27.3264C37.8668 30.2926 36.8147 33.0139 35.0738 35.1519C35.2798 35.2396 35.4959 35.302 35.721 35.3364C37.8218 35.6573 39.9064 33.4201 40.377 30.3393C40.8118 27.4933 39.7171 24.9231 37.8915 24.2949V27.1124C37.8918 27.148 37.892 27.1837 37.892 27.2194C37.892 27.255 37.8918 27.2907 37.8915 27.3263V27.3264ZM13.4272 35.1509C11.688 33.0131 10.6371 30.2922 10.6123 27.3264H10.612V27.2793L10.6119 27.2192L10.612 27.1591V24.294C8.78654 24.9209 7.69169 27.492 8.1263 30.3392C8.59657 33.4199 10.6795 35.6572 12.7786 35.3362C13.0042 35.3017 13.2208 35.2391 13.4272 35.1509Z" fill="white"/>
<path d="M60.082 34.5H62.362V26.22C62.692 26.25 62.992 26.25 63.382 26.25C65.182 26.25 67.072 25.5 68.152 24C68.932 22.98 69.382 21.72 69.382 19.86C69.382 18.09 68.872 16.62 67.912 15.66C66.862 14.64 65.272 14.19 63.412 14.19C62.092 14.19 61.012 14.34 60.082 14.58V34.5ZM62.362 16.23C62.662 16.14 63.112 16.08 63.652 16.08C66.232 16.08 67.072 17.94 67.072 20.01C67.072 22.89 65.542 24.36 63.292 24.36C62.902 24.36 62.632 24.33 62.362 24.3V16.23ZM77.1344 14.04C73.6244 14.04 71.1944 17.67 71.1944 24.36C71.1944 31.17 73.4444 34.74 76.8044 34.74C80.0744 34.74 82.6544 31.83 82.6544 24.24C82.6544 17.79 80.5844 14.04 77.1344 14.04ZM76.9544 16.08C79.5644 16.08 80.2544 20.55 80.2544 24.33C80.2544 28.29 79.5644 32.7 76.9844 32.7C74.4044 32.7 73.5944 28.56 73.5944 24.39C73.5944 20.28 74.4044 16.08 76.9544 16.08ZM84.6829 17.1C85.4329 16.56 86.5729 16.05 87.6529 16.05C89.6029 16.05 90.8029 17.28 90.8029 19.23C90.8029 21.39 88.7329 23.01 86.6329 23.01H86.1829V24.84H86.8129C89.3929 24.84 91.4029 26.25 91.4029 28.95C91.4029 31.17 90.0229 32.76 87.5329 32.76C86.1829 32.76 85.1329 32.34 84.3229 31.83L83.7529 33.75C84.7429 34.38 86.2729 34.74 87.6829 34.74C91.2529 34.74 93.7729 32.55 93.7729 28.95C93.7729 26.22 92.1829 24.18 89.6029 23.76V23.7C91.6729 23.07 93.1429 21.09 93.1429 18.9C93.1429 16.11 91.4029 14.04 88.1929 14.04C86.4229 14.04 84.9829 14.64 84.0829 15.33L84.6829 17.1ZM94.5836 14.28L99.1136 27.93C99.2636 28.41 99.2336 28.74 99.1436 29.1C98.7236 30.54 97.6136 32.88 95.9636 32.88C95.7236 32.88 95.5136 32.85 95.3336 32.82L95.2436 34.68C95.5436 34.8 95.9036 34.83 96.3236 34.83C97.8536 34.83 99.2036 33.66 100.134 31.92C101.514 29.22 102.354 25.56 102.954 23.34L105.384 14.28H103.044L101.244 22.5C100.974 23.76 100.734 25.08 100.494 26.07H100.404C100.134 24.96 99.8336 23.82 99.4736 22.56L97.0736 14.28H94.5836ZM119.763 34.5H121.923L120.753 14.28H118.173L115.893 23.52C115.233 26.25 114.783 28.17 114.393 30.48H114.303C113.883 28.17 113.373 26.19 112.683 23.52L110.343 14.28H107.823L106.623 34.5H108.693L109.083 25.95C109.203 23.07 109.353 20.25 109.323 17.88H109.413C109.833 20.22 110.403 22.71 111.093 25.29L113.433 34.38H114.933L117.393 24.9C118.023 22.53 118.563 20.13 119.013 17.88H119.133C119.043 20.16 119.193 23.13 119.343 25.8L119.763 34.5ZM125.062 14.28V34.5H127.372V25.05H133.042V34.5H135.352V14.28H133.042V22.95H127.372V14.28H125.062ZM138.948 14.28V34.5H141.138L144.918 24.75C145.698 22.71 146.628 20.49 147.348 17.97H147.408C147.228 20.67 147.168 23.19 147.168 27.51V34.5H149.238V14.28H147.078L143.448 23.73C142.608 25.92 141.528 28.59 140.838 30.78H140.778C140.958 27.6 141.048 25.02 141.048 21.51V14.28H138.948ZM152.894 14.28V34.5H155.144V25.17H155.504C157.904 25.17 158.564 27 159.074 29.46C159.434 31.17 159.764 33.18 160.244 34.5H162.584C161.954 32.76 161.654 30.78 161.234 28.86C160.724 26.4 159.914 24.27 157.424 23.73L162.374 14.28H159.854L155.564 23.46H155.144V14.28H152.894ZM164.583 14.28V34.5H166.773L170.553 24.75C171.333 22.71 172.263 20.49 172.983 17.97H173.043C172.863 20.67 172.803 23.19 172.803 27.51V34.5H174.873V14.28H172.713L169.083 23.73C168.243 25.92 167.163 28.59 166.473 30.78H166.413C166.593 27.6 166.683 25.02 166.683 21.51V14.28H164.583Z" fill="#4F4F4F"/>
</svg>
