<svg width="246" height="256" viewBox="0 0 246 256" fill="none" xmlns="http://www.w3.org/2000/svg">
<g filter="url(#filter0_d)">
<circle cx="115.873" cy="115.342" r="75" fill="white" fill-opacity="0.01"/>
</g>
<g filter="url(#filter1_d)">
<circle cx="115.873" cy="115.342" r="75" fill="white"/>
</g>
<path d="M179.121 131.991L180.398 132.327C189.779 96.6904 168.496 60.1987 132.86 50.8172C97.2247 41.4358 60.7336 62.7185 51.3503 98.3541C41.9695 133.99 63.2516 170.483 98.8871 179.864C134.523 189.246 171.015 167.963 180.398 132.327L177.845 131.655C173.337 148.772 162.327 162.431 148.157 170.697C133.986 178.96 116.676 181.817 99.5592 177.311C82.4431 172.805 68.7836 161.795 60.5179 147.625C52.2552 133.453 49.3979 116.144 53.9042 99.0264C58.4105 81.9093 69.4206 68.2503 83.5903 59.9844C97.7617 51.7215 115.072 48.8643 132.188 53.3703C149.305 57.8765 162.964 68.8867 171.229 83.0565C179.492 97.228 182.349 114.538 177.845 131.655L179.121 131.991Z" fill="#39D8D8"/>
<path d="M79.8477 130.259C84.3499 141.115 93.7028 149.824 105.947 153.047C118.154 156.261 130.541 153.315 139.796 146.133L138.178 144.047C129.541 150.746 118.005 153.49 106.619 150.494C95.198 147.487 86.491 139.375 82.2862 129.248L79.8475 130.26L79.8477 130.259Z" fill="#39D8D8"/>
<path d="M151.604 99.7221C146.995 89.1926 137.783 80.7873 125.802 77.6334C113.699 74.447 101.414 77.3168 92.1849 84.3704L93.7882 86.4687C102.402 79.8894 113.84 77.2158 125.13 80.1872C136.305 83.13 144.882 90.9582 149.185 100.781L151.605 99.7223L151.604 99.7221Z" fill="#39D8D8"/>
<path d="M104.281 95.2439L96.7641 93.2651L81.904 116.021L79.8727 88.8182L72.3134 86.8281L63.9208 118.707L69.018 120.049L75.4894 95.4678L77.7874 122.358L82.1938 123.518L97.2188 101.188L90.7474 125.77L95.8881 127.123L104.281 95.2439ZM123.922 99.601C114.504 97.1217 107.127 103.032 104.664 112.39C102.047 122.33 106.229 130.66 115.041 132.98C123.811 135.289 131.595 130.109 134.212 120.168C136.817 110.273 132.604 101.887 123.921 99.6008L123.922 99.601ZM122.598 104.28C128.3 105.781 130.703 111.393 128.782 118.691C126.86 125.989 121.982 129.779 116.367 128.301C110.578 126.777 108.175 121.165 110.132 113.733C112.03 106.524 116.94 102.789 122.599 104.279L122.598 104.28ZM167.829 111.974L162.429 110.552L159.093 123.223L145.011 119.516L148.347 106.845L142.947 105.423L134.554 137.302L139.954 138.724L143.726 124.396L157.809 128.103L154.036 142.431L159.436 143.853L167.829 111.974Z" fill="#FFDC3A"/>
<path d="M81.6012 79.3105L83.8329 81.743L82.4347 83.0253L76.089 76.1082L78.4452 73.9468C79.1298 73.3186 79.8712 73.03 80.6677 73.0821C81.4629 73.1322 82.1718 73.497 82.7932 74.1746C83.4154 74.8524 83.7055 75.5719 83.6647 76.3351C83.6228 77.0963 83.2444 77.8042 82.5327 78.4572L81.6018 79.3115L81.6012 79.3105ZM80.5301 78.1435L81.4882 77.2644C81.756 77.019 81.88 76.7442 81.867 76.4369C81.8533 76.1294 81.6947 75.8096 81.3908 75.479C81.0751 75.135 80.7495 74.9297 80.4124 74.8625C80.0789 74.7953 79.7845 74.8736 79.53 75.1011L78.5573 75.9935L80.5301 78.1435ZM89.8042 71.998L87.3658 73.6634L88.7809 75.7345L91.6663 73.7641L92.5524 75.0615L88.1028 78.101L82.8093 70.3494L87.2483 67.3175L88.142 68.6255L85.2678 70.5894L86.5186 72.421L88.957 70.7556L89.8058 71.9984L89.8042 71.998ZM94.3184 69.9528L93.5772 70.3155L95.2616 73.7541L93.5606 74.5874L89.4304 66.158L91.1314 65.3248L92.7814 68.6915L93.3547 68.4102L93.1695 64.3263L95.2421 63.311L95.1038 68.2448L99.6035 71.6274L97.5782 72.6198L94.3184 69.9528ZM105.492 66.067C105.823 67.2838 105.793 68.3039 105.401 69.1338C105.011 69.9628 104.303 70.5152 103.285 70.7929C102.268 71.0692 101.379 70.954 100.617 70.4445C99.8572 69.9378 99.3078 69.0847 98.9735 67.8886L98.5516 66.3389C98.2125 65.0926 98.2369 64.0418 98.6221 63.1867C99.0102 62.3306 99.715 61.7629 100.738 61.4846C101.746 61.2102 102.634 61.3381 103.4 61.866C104.169 62.3956 104.725 63.2798 105.07 64.5175L105.492 66.067ZM103.243 65.0437C103.021 64.2267 102.738 63.6505 102.399 63.3148C102.059 62.9808 101.644 62.8794 101.153 63.0128C100.669 63.1445 100.363 63.4331 100.233 63.8812C100.107 64.3292 100.144 64.9452 100.349 65.7308L100.787 67.3425C101.004 68.1364 101.281 68.6882 101.619 68.9993C101.959 69.3109 102.375 69.3981 102.868 69.2635C103.346 69.1335 103.65 68.8546 103.782 68.4244C103.913 67.9941 103.877 67.3905 103.671 66.6183L103.242 65.0427L103.243 65.0437ZM109.637 59.8309L111.883 66.4771L113.166 59.5806L115.636 59.4067L116.298 68.7698L114.401 68.9041L114.221 66.3713L114.119 62.4546L112.703 69.0245L111.417 69.1156L109.089 62.8102L109.539 66.703L109.719 69.2358L107.829 69.3694L107.167 60.0064L109.636 59.8315L109.637 59.8309ZM122.984 65.2456L120.04 65.0113L119.842 67.5117L123.324 67.7889L123.2 69.3548L117.828 68.9273L118.573 59.5697L123.932 59.9964L123.806 61.5759L120.336 61.2995L120.161 63.5098L123.105 63.7441L122.985 65.245L122.984 65.2456ZM130.674 71.1393L128.836 70.7079L129.754 66.7998L127.029 66.1599L126.111 70.0671L124.268 69.6343L126.414 60.4958L128.258 60.9287L127.389 64.63L130.114 65.2707L130.983 61.5694L132.821 62.0008L130.674 71.1393ZM138.08 77.0183L136.502 76.2842L137.476 74.1886L133.45 72.316L132.478 74.4053L130.852 73.6484L132.395 70.0924L132.961 70.3561C133.318 70.2424 133.686 69.9623 134.068 69.5197C134.45 69.0759 134.863 68.4547 135.305 67.6558L137.391 63.7972L142.283 66.0734L138.987 73.1605L139.87 73.5714L138.08 77.0199L138.08 77.0183ZM134.81 71.2156L137.276 72.3632L139.904 66.7134L138.36 65.9953L137.131 68.2726C136.378 69.6337 135.603 70.6152 134.81 71.2172L134.81 71.2156ZM147.547 76.2235C146.799 77.2396 145.982 77.85 145.087 78.0588C144.196 78.2684 143.323 78.0585 142.472 77.4324C141.623 76.8077 141.161 76.0386 141.087 75.1263C141.012 74.2154 141.339 73.2546 142.067 72.2495L143.018 70.9556C143.784 69.9156 144.622 69.2812 145.532 69.0508C146.443 68.8223 147.326 69.0213 148.181 69.65C149.022 70.2694 149.474 71.0444 149.537 71.9727C149.6 72.9044 149.253 73.8892 148.498 74.9293L147.547 76.2235ZM146.95 73.8262C147.452 73.1439 147.728 72.5649 147.78 72.0904C147.831 71.6172 147.652 71.2285 147.243 70.927C146.839 70.6295 146.422 70.5688 145.991 70.7464C145.562 70.9252 145.103 71.3381 144.614 71.987L143.624 73.3319C143.136 73.9947 142.877 74.5549 142.844 75.0137C142.811 75.4733 143.001 75.8541 143.413 76.1561C143.812 76.4488 144.219 76.5147 144.638 76.3504C145.057 76.1852 145.507 75.7819 145.984 75.1412L146.95 73.8262ZM146.339 80.1695L152.939 73.495L155.001 75.5341C155.697 76.2227 156.074 76.9014 156.129 77.5693C156.186 78.2379 155.916 78.8708 155.324 79.4685C154.989 79.808 154.626 80.0277 154.234 80.1234C153.842 80.2191 153.461 80.1945 153.09 80.0504C153.305 80.4333 153.366 80.8331 153.272 81.252C153.179 81.6698 152.944 82.0696 152.57 82.448C151.928 83.0978 151.267 83.4092 150.585 83.3882C149.902 83.3658 149.222 83.0207 148.548 82.3542L146.339 80.1695ZM150.554 78.601L148.79 80.3844L149.652 81.2372C149.893 81.4755 150.15 81.5811 150.424 81.555C150.696 81.5301 150.969 81.379 151.241 81.1037C151.833 80.5046 151.921 79.9843 151.503 79.5403L150.554 78.601ZM151.529 77.6153L152.23 78.3086C152.759 78.8318 153.293 78.8208 153.831 78.2764C154.129 77.9744 154.282 77.6978 154.29 77.4459C154.297 77.1954 154.163 76.933 153.887 76.6606L153.172 75.9532L151.529 77.6143L151.529 77.6153ZM155.728 87.9L154.166 85.8393L152.338 86.5961L151.127 84.9988L160.378 81.6633L161.426 83.0465L155.729 91.0685L154.506 89.4551L155.728 87.9ZM155.678 85.2119L156.737 86.61L158.876 83.8867L155.678 85.2119ZM158.985 97.8153L158.152 96.1203L161.753 94.3488L160.518 91.8369L156.916 93.6083L156.08 91.9083L164.503 87.7652L165.34 89.4652L161.927 91.1438L163.163 93.6549L166.575 91.9772L167.408 93.6714L158.985 97.8153ZM165.056 104.595C163.838 104.926 162.819 104.895 161.988 104.503C161.16 104.113 160.607 103.406 160.33 102.387C160.053 101.37 160.168 100.481 160.678 99.7195C161.185 98.9592 162.039 98.41 163.234 98.0755L164.784 97.6538C166.031 97.3147 167.081 97.339 167.936 97.7243C168.793 98.1124 169.36 98.8171 169.638 99.8408C169.913 100.849 169.785 101.737 169.257 102.503C168.727 103.272 167.843 103.828 166.605 104.174L165.056 104.595ZM166.079 102.346C166.896 102.124 167.472 101.841 167.808 101.502C168.142 101.163 168.244 100.747 168.11 100.256C167.978 99.7723 167.69 99.4656 167.242 99.3364C166.794 99.2099 166.178 99.2475 165.392 99.4522L163.78 99.8905C162.987 100.107 162.435 100.384 162.124 100.723C161.812 101.062 161.725 101.478 161.86 101.971C161.99 102.449 162.268 102.754 162.699 102.885C163.129 103.016 163.733 102.98 164.505 102.774L166.079 102.346Z" fill="#333333"/>
<path d="M81.7931 151.56L86.0124 149.287L87.6016 150.867L79.7468 154.754C78.9385 155.11 78.2956 155.266 77.8155 155.223C77.3362 155.179 76.9078 154.979 76.5289 154.622L76.368 154.462L76.0368 154.092L77.2294 152.841C77.2504 152.889 77.3512 153.003 77.5369 153.187C77.7238 153.373 77.9073 153.474 78.0855 153.484C78.2651 153.495 78.5338 153.39 78.8944 153.168L79.2307 152.97L82.3521 145.646L83.9365 147.221L81.7941 151.559L81.7931 151.56ZM87.4732 157.99L86.7152 157.491L84.3974 161.007L82.6572 159.86L88.3403 151.239L90.0803 152.387L87.81 155.831L88.3963 156.217L92.1638 153.76L94.2839 155.158L89.5305 157.782L88.8372 163.934L86.7661 162.569L87.4738 157.991L87.4732 157.99ZM94.5738 162.582L93.0158 165.861L91.1311 164.966L95.5631 155.639L98.7394 157.149C99.6622 157.587 100.263 158.224 100.539 159.058C100.817 159.889 100.737 160.762 100.303 161.676C99.8684 162.589 99.2543 163.182 98.4591 163.455C97.6654 163.727 96.7877 163.634 95.8281 163.178L94.5732 162.581L94.5738 162.582ZM95.3214 161.008L96.613 161.622C96.9742 161.794 97.305 161.806 97.6131 161.666C97.9212 161.526 98.1813 161.231 98.3932 160.786C98.6134 160.322 98.6887 159.905 98.6186 159.534C98.5493 159.166 98.3468 158.898 98.0098 158.733L96.6983 158.11L95.3206 161.008L95.3214 161.008ZM104.436 167.437L101.662 166.81L100.659 168.742L98.5082 168.256L103.93 158.896L105.792 159.317L106.681 170.105L104.509 169.614L104.435 167.438L104.436 167.437ZM102.49 165.211L104.372 165.636L104.242 161.83L102.49 165.211ZM111.524 170.621L109.446 170.473L110.18 160.173L112.259 160.322L111.524 170.621ZM108.596 158.475C108.614 158.217 108.726 158.009 108.929 157.851C109.131 157.693 109.369 157.625 109.645 157.645C109.918 157.665 110.144 157.766 110.322 157.951C110.501 158.136 110.582 158.358 110.563 158.616C110.546 158.87 110.433 159.075 110.23 159.234C110.028 159.392 109.79 159.462 109.517 159.442C109.241 159.423 109.017 159.319 108.838 159.134C108.659 158.949 108.578 158.73 108.596 158.476L108.596 158.475ZM112.056 158.723C112.074 158.468 112.186 158.263 112.388 158.105C112.591 157.948 112.829 157.879 113.102 157.899C113.378 157.918 113.603 158.019 113.782 158.204C113.96 158.389 114.042 158.608 114.023 158.862C114.006 159.108 113.899 159.311 113.705 159.475C113.512 159.638 113.267 159.708 112.975 159.687C112.682 159.666 112.452 159.562 112.283 159.373C112.114 159.184 112.038 158.968 112.056 158.722L112.056 158.723ZM122.22 170.43L120.151 170.609L119.769 166.211L116.702 166.477L117.084 170.875L115.008 171.055L114.115 160.769L116.191 160.588L116.553 164.754L119.62 164.488L119.259 160.321L121.327 160.142L122.22 170.428L122.22 170.43ZM127.73 158.897L129.736 158.335L132.521 168.277L130.514 168.84L128.67 162.255L127.585 169.66L125.571 170.224L122.785 160.281L124.799 159.717L126.645 166.306L127.729 158.896L127.73 158.897Z" fill="#333333"/>
<path d="M71.7906 144.688C72.7311 144.936 73.6942 144.374 73.9417 143.434C74.1893 142.493 73.6277 141.53 72.6872 141.282C71.7468 141.035 70.7837 141.596 70.5361 142.537C70.2885 143.477 70.8502 144.441 71.7906 144.688Z" fill="#39D8D8"/>
<path d="M138.508 162.252C139.449 162.5 140.412 161.938 140.66 160.998C140.907 160.057 140.345 159.094 139.405 158.847C138.465 158.599 137.501 159.161 137.254 160.101C137.006 161.042 137.568 162.005 138.508 162.252Z" fill="#39D8D8"/>
<path d="M131.701 55.2205C148.303 59.591 161.561 70.2772 169.576 84.0209C177.591 97.7639 180.364 114.567 175.993 131.168C171.623 147.77 160.937 161.028 147.193 169.043C133.45 177.058 116.647 179.831 100.047 175.461C83.445 171.09 70.1865 160.404 62.172 146.66C54.1572 132.917 51.3843 116.115 55.7547 99.5135C60.1253 82.9116 70.8114 69.6529 84.5551 61.6381C98.2979 53.6232 115.1 50.8501 131.701 55.2205ZM168.768 84.4927C160.874 70.9562 147.814 60.4301 131.463 56.1254C115.112 51.8208 98.563 54.5522 85.0258 62.4465C71.4895 70.3411 60.9633 83.4008 56.6586 99.7523C52.3539 116.104 55.0849 132.654 62.9793 146.19C70.8737 159.727 83.9332 170.253 100.284 174.557C116.636 178.862 133.185 176.131 146.722 168.236C160.258 160.342 170.784 147.282 175.089 130.93C179.394 114.579 176.662 98.03 168.768 84.4927Z" fill="#39D8D8"/>
<path d="M70.5725 67.726C70.8991 68.0279 70.6875 68.468 70.3618 68.8082C70.0361 69.1484 69.6017 69.3826 69.4873 69.2768C69.3713 69.1697 69.5737 68.7211 70.5298 67.6866C70.545 67.7007 70.5587 67.7133 70.571 67.7246L70.5725 67.726Z" fill="white"/>
<path d="M164.259 102.839C167.022 105.621 165.185 105.83 164.228 104.945C163.723 104.478 163.462 103.701 164.259 102.839Z" fill="white"/>
<path d="M164.258 102.838C162.993 104.206 162.259 104.373 161.954 104.091C161.374 103.555 162.37 101.384 164.258 102.838Z" fill="white"/>
<path d="M77.4875 62.334C77.6828 62.5145 77.6632 62.7224 77.2471 62.9339C75.7826 62.4703 75.1016 62.1601 74.8986 61.9725C74.6392 61.7328 75.1399 61.687 75.7794 61.7696C76.4174 61.8507 77.1928 62.0588 77.4873 62.331L77.4875 62.334Z" fill="white"/>
<path d="M157.194 119.07C157.404 119.264 157.508 119.569 157.423 120.01C156.51 119.975 155.641 120.135 154.766 120.27C153.768 119.243 156.344 118.284 157.192 119.068L157.194 119.07Z" fill="white"/>
<path d="M135.394 111.954C135.717 112.253 135.375 112.578 134.89 112.765C134.408 112.956 133.779 113.012 133.528 112.781C133.319 112.588 133.378 112.188 134.026 111.487C134.78 111.613 135.203 111.781 135.392 111.956L135.394 111.954Z" fill="white"/>
<path d="M130.379 112.181C128.723 113.972 127.604 114.091 127.157 113.677C126.462 113.036 127.378 111.114 130.379 112.181Z" fill="white"/>
<path d="M150.107 89.4398C149.947 89.9646 149.561 89.837 149.27 89.5676C148.788 89.1219 148.572 88.2927 150.107 89.4398Z" fill="white"/>
<path d="M100.661 93.2579C100.793 93.3806 100.949 93.5362 101.131 93.7261C100.949 93.9711 100.683 93.8609 100.456 93.6507C100.224 93.4363 100.032 93.1117 100.02 92.9564C100.01 92.8011 100.177 92.8108 100.661 93.2579Z" fill="white"/>
<path d="M104.277 50.398C104.804 51.6309 104.697 51.7805 104.426 51.5308C103.917 51.0598 102.824 49.1684 104.277 50.398Z" fill="white"/>
<path d="M95.2279 96.8597C94.1551 98.7553 93.0615 98.7079 92.3412 98.0422C90.9479 96.7545 90.9529 93.1517 95.2279 96.8597Z" fill="white"/>
<path d="M60.9649 76.0383C59.9282 76.7864 59.2579 76.7433 58.9634 76.4711C58.443 75.9901 59.0991 74.8026 60.9649 76.0383Z" fill="white"/>
<path d="M132.096 93.4426C132.206 93.5442 132 93.8063 131.761 94.0344C131.517 94.2613 131.24 94.4542 131.2 94.4175C131.161 94.3808 131.36 94.116 132.079 93.43C132.085 93.4357 132.091 93.4384 132.097 93.444L132.096 93.4426Z" fill="white"/>
<path d="M119.615 132.94C120.413 133.732 121.242 134.528 120.557 135.172C120.203 134.427 118.813 133.571 119.615 132.94Z" fill="white"/>
<path d="M145.465 95.6196C145.602 97.2996 145.634 97.8435 145.619 97.8294C145.59 97.8026 145.386 95.6374 145.465 95.6196Z" fill="white"/>
<path d="M117.375 66.4948C117.583 66.6867 117.427 66.7353 117.174 66.6936C116.92 66.6534 116.568 66.5201 116.382 66.348C116.235 66.2126 116.191 66.0527 116.374 65.8914C116.93 66.1682 117.236 66.3636 117.376 66.4933L117.375 66.4948Z" fill="white"/>
<path d="M125.371 110.965C125.65 111.223 125.435 111.66 123.861 111.564C124.237 110.621 125.078 110.694 125.371 110.965Z" fill="white"/>
<path d="M138.342 90.4466C138.356 90.4593 138.177 90.7454 137.64 91.5345C137.369 91.8579 137.259 91.9767 137.247 91.9655C137.226 91.9457 137.492 91.5593 137.768 91.1813C138.044 90.8034 138.327 90.4325 138.342 90.4466Z" fill="white"/>
<path d="M146.606 72.1005C147.759 75.2164 147.226 75.4133 146.542 74.7814C145.932 74.2173 145.202 72.9951 145.438 72.5967C145.599 72.8446 145.743 73.0257 145.871 73.1441C146.311 73.5503 146.555 73.203 146.605 72.0991L146.606 72.1005Z" fill="white"/>
<path d="M129.629 86.6927C129.833 86.8817 129.895 87.2407 129.502 87.7907C129.389 87.7025 129.288 87.6212 129.203 87.5422C128.712 87.088 128.715 86.7808 128.893 86.6314C129.069 86.4865 129.423 86.4993 129.629 86.6897L129.629 86.6927Z" fill="white"/>
<path d="M106.525 70.6568C106.234 71.3145 106.129 71.5257 106.121 71.5186C106.109 71.5073 106.423 70.7665 106.525 70.6568Z" fill="white"/>
<path d="M120.056 90.0185C120.366 90.3048 120.913 90.9375 120.786 91.0746C119.674 89.7923 119.743 89.7294 120.056 90.0185Z" fill="white"/>
<path d="M181.806 118.788C181.815 118.796 182.192 121.582 182.336 122.905C181.93 119.823 181.8 118.782 181.806 118.788Z" fill="white"/>
<path d="M114.601 46.9593C114.878 47.2146 115.035 47.7581 114.52 48.4318C113.454 46.8596 114.173 46.563 114.601 46.9593Z" fill="white"/>
<path d="M110.635 90.9727C110.662 90.9981 110.564 91.209 110.242 91.7313C109.752 92.2615 109.555 92.4322 109.527 92.4068C109.491 92.373 109.749 91.9957 110.025 91.6383C110.302 91.2809 110.595 90.939 110.635 90.9756L110.635 90.9727Z" fill="white"/>
<path d="M103.097 69.2938C103.373 69.5491 104.252 70.5539 104.149 70.6651C103.022 69.3319 102.894 69.1033 103.097 69.2938Z" fill="white"/>
<path d="M117.268 51.6053C117.441 52.3862 117.147 52.5753 117.001 52.4399C116.882 52.3299 116.86 52.0016 117.268 51.6053Z" fill="white"/>
<path d="M167.865 133.528C167.912 133.572 167.937 133.609 167.919 133.629C167.354 133.282 167.108 133.117 167.045 133.059C166.977 132.996 167.128 133.062 167.323 133.169C167.519 133.279 167.755 133.427 167.865 133.528Z" fill="white"/>
<path d="M108.048 57.1839C108.421 57.528 108.453 58.2585 107.336 57.2261C107.592 56.9371 107.864 57.0133 108.048 57.1839Z" fill="white"/>
<path d="M100.825 62.5507C101.239 62.9329 100.688 63.4948 100.927 63.9102C100.779 63.9541 100.677 63.936 100.613 63.8768C100.373 63.6554 100.646 62.8485 100.79 62.5212C100.803 62.5324 100.815 62.5408 100.825 62.5507Z" fill="white"/>
<path d="M103.049 60.4814C103.15 60.5745 103.113 60.5465 102.702 60.1892C102.101 59.6335 102.848 60.2953 103.049 60.4814Z" fill="white"/>
<path d="M135.6 127.733C135.988 128.091 135.999 129.068 134.639 130.54C133.66 128.016 135.032 127.208 135.6 127.733Z" fill="white"/>
<path d="M185.725 123.638C183.54 125.23 182.71 125.666 182.611 125.574C182.408 125.387 185.12 123.08 185.725 123.638Z" fill="white"/>
<path d="M132.47 116.108C132.662 116.286 132.807 116.824 132.725 117.942C132.555 117.859 132.419 117.762 132.308 117.659C131.897 117.279 131.84 116.802 131.933 116.462C132.024 116.122 132.272 115.925 132.469 116.107L132.47 116.108Z" fill="white"/>
<path d="M111.915 105.146C112.106 105.322 111.928 105.959 110.876 107.372C110.661 107.305 110.5 107.219 110.39 107.118C109.978 106.737 110.262 106.154 110.696 105.708C111.134 105.265 111.72 104.962 111.917 105.144L111.915 105.146Z" fill="white"/>
<path d="M140.667 96.1185C140.852 96.2891 140.811 96.517 140.676 96.6574C140.54 96.7978 140.31 96.8507 140.115 96.6702C140.094 96.6504 140.074 96.6292 140.054 96.605C139.934 96.4348 140.162 96.2055 140.396 95.9747C140.516 96.0126 140.603 96.0622 140.666 96.12L140.667 96.1185Z" fill="white"/>
<path d="M121.815 94.7941C121.859 94.835 121.805 95.1295 121.55 95.8769C121.354 96.0887 121.25 96.1485 121.211 96.1118C121.141 96.047 121.266 95.6939 121.422 95.3691C121.576 95.0428 121.761 94.7448 121.813 94.7927L121.815 94.7941Z" fill="white"/>
<path d="M106.398 50.0533C105.611 50.5406 105.324 50.6795 105.299 50.657C105.257 50.6175 106.086 50.0448 106.398 50.0533Z" fill="white"/>
<path d="M174.766 121.55C175.305 122.048 175.452 123.031 174.188 124.399C171.403 121.363 173.762 120.622 174.766 121.55Z" fill="white"/>
<path d="M129.372 61.9408C129.47 62.0311 129.582 62.2001 129.708 62.4715C129.413 62.7899 129.213 62.8109 129.094 62.7009C128.963 62.5796 128.934 62.2986 128.984 62.0939C129.038 61.8891 129.171 61.7576 129.369 61.9409L129.372 61.9408Z" fill="white"/>
<path d="M82.9688 100.386C79.0511 100.537 80.1405 99.0434 81.4391 98.9375C82.1246 98.8815 82.8733 99.216 82.9688 100.386Z" fill="white"/>
<path d="M82.9695 100.386C82.818 98.529 83.1922 97.8761 83.6064 97.8423C84.3934 97.7781 85.3173 99.98 82.9695 100.386Z" fill="white"/>
<path d="M179.431 79.8118C179.166 79.8334 179.026 79.6783 179.152 79.2288C180.484 78.4645 181.173 78.173 181.449 78.1506C181.801 78.1218 181.496 78.5214 181.002 78.9363C180.511 79.3511 179.833 79.7811 179.433 79.8137L179.431 79.8118Z" fill="white"/>
<path d="M75.8012 84.2003C75.5154 84.2236 75.2212 84.0935 74.9541 83.7323C75.5976 83.0845 76.0682 82.3363 76.5607 81.6009C77.9919 81.5612 76.9548 84.1061 75.8033 84.2001L75.8012 84.2003Z" fill="white"/>
<path d="M95.7935 72.9673C95.3544 73.0032 95.3472 72.5313 95.5371 72.0474C95.7228 71.5639 96.1072 71.0622 96.4469 71.0344C96.7306 71.0113 96.9856 71.3256 97.0632 72.2768C96.4593 72.7465 96.0502 72.9443 95.7933 72.9653L95.7935 72.9673Z" fill="white"/>
<path d="M99.0201 69.1218C98.8217 66.6902 99.4923 65.7862 100.099 65.7367C101.041 65.6598 101.836 67.6349 99.0201 69.1218Z" fill="white"/>
<path d="M102.41 99.0355C102.132 98.5628 102.487 98.3653 102.883 98.333C103.537 98.2796 104.293 98.6821 102.41 99.0355Z" fill="white"/>
<path d="M133.064 60.0502C132.884 60.0649 132.664 60.0746 132.402 60.0793C132.344 59.7801 132.605 59.6589 132.914 59.6337C133.228 59.6081 133.598 59.6862 133.72 59.7823C133.841 59.8807 133.721 59.9967 133.064 60.0502Z" fill="white"/>
<path d="M162.17 91.7191C160.906 91.2727 160.868 91.0926 161.235 91.0627C161.926 91.0063 164.058 91.4818 162.17 91.7191Z" fill="white"/>
<path d="M134.089 53.6136C133.42 51.5409 134.195 50.7679 135.172 50.6881C137.063 50.5339 139.712 52.9759 134.089 53.6136Z" fill="white"/>
<path d="M111.653 83.0675C111.504 83.0797 111.45 82.751 111.444 82.4205C111.442 82.0877 111.487 81.753 111.541 81.7486C111.595 81.7442 111.655 82.0703 111.673 83.0637C111.665 83.0644 111.659 83.067 111.651 83.0677L111.653 83.0675Z" fill="white"/>
<path d="M91.0238 47.148C89.9001 47.2001 88.7529 47.2708 88.743 46.3308C89.5301 46.5746 91.1013 46.13 91.0238 47.148Z" fill="white"/>
<path d="M101.003 91.4361C99.6737 90.3997 99.2515 90.0553 99.2723 90.0536C99.3116 90.0504 101.043 91.3662 101.003 91.4361Z" fill="white"/>
<path d="M141.455 90.4677C141.173 90.4907 141.242 90.3435 141.444 90.1855C141.646 90.0254 141.982 89.8564 142.235 89.8358C142.434 89.8196 142.582 89.8949 142.577 90.1389C141.996 90.3611 141.645 90.4542 141.455 90.4698L141.455 90.4677Z" fill="white"/>
<path d="M103.305 66.2579C102.926 66.2888 102.749 65.8349 103.886 64.741C104.326 65.6564 103.703 66.2255 103.305 66.2579Z" fill="white"/>
<path d="M109.631 89.6937C109.612 89.6952 109.523 89.3694 109.306 88.4401C109.251 88.022 109.238 87.8607 109.254 87.8594C109.283 87.857 109.387 88.3148 109.479 88.7736C109.57 89.2324 109.652 89.692 109.631 89.6937Z" fill="white"/>
<path d="M117.545 108.194C114.471 106.933 114.687 106.408 115.614 106.332C116.443 106.265 117.836 106.555 117.97 106.997C117.679 106.948 117.448 106.932 117.274 106.946C116.678 106.995 116.768 107.41 117.547 108.194L117.545 108.194Z" fill="white"/>
<path d="M118.292 85.8191C118.014 85.8417 117.708 85.6439 117.569 84.983C117.711 84.9589 117.839 84.9402 117.955 84.9307C118.622 84.8763 118.845 85.087 118.835 85.3189C118.822 85.5468 118.574 85.7982 118.294 85.821L118.292 85.8191Z" fill="white"/>
<path d="M145.734 79.663C145.446 79.0037 145.362 78.7837 145.372 78.7829C145.389 78.7815 145.722 79.5141 145.734 79.663Z" fill="white"/>
<path d="M122.322 76.5212C121.902 76.5554 121.066 76.53 121.051 76.3439C122.748 76.3928 122.747 76.4865 122.322 76.5212Z" fill="white"/>
<path d="M59.3514 102.51C59.339 102.511 57.0333 100.903 55.9619 100.114C58.5053 101.901 59.3597 102.51 59.3514 102.51Z" fill="white"/>
<path d="M157.713 101.647C157.338 101.678 156.832 101.425 156.685 100.59C158.563 100.87 158.295 101.6 157.713 101.647Z" fill="white"/>
<path d="M127.997 68.9395C127.959 68.9425 127.871 68.727 127.704 68.137C127.645 67.4174 127.653 67.1566 127.69 67.1535C127.74 67.1495 127.843 67.5949 127.919 68.0403C127.995 68.4858 128.048 68.9332 127.994 68.9376L127.997 68.9395Z" fill="white"/>
<path d="M149.058 78.0618C148.683 78.0924 147.348 78.0597 147.336 77.9088C149.081 77.9808 149.336 78.0412 149.058 78.0618Z" fill="white"/>
<path d="M152.488 100.466C151.797 100.065 151.856 99.7205 152.055 99.7043C152.216 99.6911 152.473 99.8971 152.488 100.466Z" fill="white"/>
<path d="M57.9345 82.2709C57.8703 82.2761 57.8259 82.2693 57.8237 82.2424C58.4615 82.0614 58.7498 81.992 58.8348 81.9851C58.928 81.9775 58.777 82.044 58.566 82.1153C58.3528 82.1847 58.0836 82.2587 57.9345 82.2709Z" fill="white"/>
<path d="M154.621 89.9036C154.115 89.9448 153.556 89.4742 155.072 89.3506C155.112 89.7345 154.871 89.8831 154.621 89.9036Z" fill="white"/>
<path d="M155.559 80.9537C154.997 80.9995 154.956 80.2139 154.489 80.1084C154.557 79.9697 154.639 79.9068 154.726 79.8997C155.051 79.8731 155.461 80.6203 155.604 80.9479C155.588 80.9493 155.573 80.9525 155.559 80.9537Z" fill="white"/>
<path d="M155.577 83.9909C155.44 84.002 155.485 83.9942 156.027 83.9334C156.843 83.8668 155.85 83.9686 155.577 83.9909Z" fill="white"/>
<path d="M84.0377 62.4403C83.5117 62.4833 82.785 61.8307 82.6221 59.8332C85.1419 60.8204 84.8082 62.3775 84.0377 62.4403Z" fill="white"/>
<path d="M53.1282 102.112C53.4346 99.4273 53.6755 98.5209 53.8101 98.5099C54.0856 98.4874 53.9484 102.046 53.1282 102.112Z" fill="white"/>
<path d="M94.7141 68.0034C94.4531 68.0247 93.9589 67.7673 93.1916 66.9494C93.3674 66.881 93.5314 66.8468 93.6826 66.8344C94.2397 66.789 94.6296 67.0694 94.8166 67.3685C95.0055 67.6653 94.9833 67.9814 94.7161 68.0032L94.7141 68.0034Z" fill="white"/>
<path d="M116.696 60.2905C116.437 60.3116 116.088 59.7489 115.76 58.0189C115.955 57.9052 116.127 57.8453 116.276 57.8331C116.835 57.7875 117.072 58.3906 117.106 59.0123C117.136 59.6343 116.963 60.2708 116.696 60.2926L116.696 60.2905Z" fill="white"/>
<path d="M103.882 87.5667C103.632 87.5872 103.492 87.403 103.48 87.2082C103.468 87.0135 103.585 86.8084 103.85 86.7867C103.879 86.7844 103.908 86.7841 103.94 86.7857C104.146 86.8125 104.16 87.1361 104.172 87.464C104.063 87.5271 103.967 87.5577 103.882 87.5647L103.882 87.5667Z" fill="white"/>
<path d="M117.616 74.5841C117.556 74.589 117.376 74.3497 116.999 73.6562C116.975 73.3688 117.001 73.2522 117.055 73.2478C117.15 73.24 117.325 73.5712 117.459 73.9059C117.595 74.2403 117.689 74.5782 117.618 74.5839L117.616 74.5841Z" fill="white"/>
<path d="M160.987 93.514C161.161 92.6048 161.253 92.2997 161.286 92.297C161.344 92.2922 161.205 93.2902 160.987 93.514Z" fill="white"/>
<path d="M62.0826 95.4581C61.3515 95.5177 60.5284 94.9604 60.377 93.1036C64.4971 93.1088 63.4454 95.3469 62.0826 95.4581Z" fill="white"/>
<path d="M136.688 102.382C136.555 102.393 136.355 102.361 136.07 102.27C136.035 101.838 136.155 101.676 136.317 101.663C136.495 101.648 136.721 101.817 136.838 101.993C136.952 102.171 136.959 102.358 136.69 102.38L136.688 102.382Z" fill="white"/>
<path d="M166.968 157.148C166.525 157.185 166.344 156.731 166.314 156.261C166.284 155.791 166.405 155.313 166.561 155.3C166.718 155.287 166.911 155.74 167.026 157.144C167.005 157.145 166.987 157.147 166.97 157.148L166.968 157.148Z" fill="white"/>
<path d="M98.9678 162.386C95.0501 162.537 96.1395 161.043 97.4381 160.937C98.1237 160.882 98.8723 161.216 98.9678 162.386Z" fill="white"/>
<path d="M98.9685 162.386C98.817 160.529 99.1912 159.876 99.6054 159.842C100.392 159.778 101.316 161.98 98.9685 162.386Z" fill="white"/>
<path d="M177.056 139.947C176.791 139.968 176.651 139.813 176.777 139.364C178.109 138.599 178.798 138.308 179.074 138.285C179.426 138.257 179.121 138.656 178.627 139.071C178.136 139.486 177.458 139.916 177.058 139.949L177.056 139.947Z" fill="white"/>
<path d="M91.8002 146.2C91.5144 146.224 91.2203 146.094 90.9531 145.732C91.5966 145.085 92.0672 144.336 92.5597 143.601C93.9909 143.561 92.9538 146.106 91.8023 146.2L91.8002 146.2Z" fill="white"/>
<path d="M93.0904 127.478C92.6513 127.514 92.6441 127.042 92.834 126.558C93.0197 126.075 93.4041 125.573 93.7437 125.545C94.0275 125.522 94.2825 125.836 94.36 126.787C93.7562 127.257 93.347 127.455 93.0902 127.476L93.0904 127.478Z" fill="white"/>
<path d="M88.0113 109.411C87.813 106.98 88.4835 106.076 89.0904 106.026C90.0327 105.949 90.8276 107.924 88.0113 109.411Z" fill="white"/>
<path d="M118.41 161.036C118.132 160.563 118.487 160.365 118.883 160.333C119.537 160.28 120.293 160.682 118.41 161.036Z" fill="white"/>
<path d="M149.063 122.05C148.883 122.065 148.663 122.075 148.401 122.079C148.343 121.78 148.604 121.659 148.913 121.634C149.228 121.608 149.597 121.686 149.719 121.782C149.84 121.881 149.72 121.997 149.063 122.05Z" fill="white"/>
<path d="M149.508 171.407C148.243 170.96 148.206 170.78 148.572 170.75C149.264 170.694 151.396 171.169 149.508 171.407Z" fill="white"/>
<path d="M163.484 113.223C162.814 111.151 163.589 110.378 164.567 110.298C166.458 110.144 169.107 112.586 163.484 113.223Z" fill="white"/>
<path d="M180.985 109.077C181.136 107.807 181.621 107.343 182.021 107.311C182.727 107.253 183.157 108.54 180.985 109.077Z" fill="white"/>
<path d="M127.652 145.068C127.503 145.08 127.449 144.751 127.443 144.421C127.441 144.088 127.486 143.753 127.54 143.749C127.594 143.744 127.654 144.07 127.672 145.064C127.664 145.064 127.658 145.067 127.65 145.068L127.652 145.068Z" fill="white"/>
<path d="M107.023 109.148C105.899 109.2 104.752 109.271 104.742 108.331C105.529 108.575 107.1 108.13 107.023 109.148Z" fill="white"/>
<path d="M117.002 153.436C115.673 152.4 115.251 152.055 115.271 152.054C115.311 152.05 117.042 153.366 117.002 153.436Z" fill="white"/>
<path d="M157.454 152.468C157.172 152.491 157.241 152.344 157.443 152.185C157.645 152.025 157.981 151.856 158.234 151.836C158.433 151.82 158.581 151.895 158.576 152.139C157.995 152.361 157.644 152.454 157.454 152.47L157.454 152.468Z" fill="white"/>
<path d="M119.304 128.258C118.925 128.289 118.748 127.835 119.885 126.741C120.325 127.656 119.702 128.225 119.304 128.258Z" fill="white"/>
<path d="M125.63 151.694C125.611 151.695 125.522 151.369 125.305 150.44C125.25 150.022 125.237 149.861 125.253 149.859C125.282 149.857 125.386 150.315 125.478 150.774C125.569 151.232 125.651 151.692 125.63 151.694Z" fill="white"/>
<path d="M133.544 170.194C130.47 168.933 130.686 168.408 131.613 168.332C132.442 168.265 133.835 168.555 133.969 168.997C133.678 168.948 133.447 168.932 133.273 168.946C132.677 168.995 132.767 169.41 133.546 170.194L133.544 170.194Z" fill="white"/>
<path d="M134.292 147.819C134.014 147.842 133.708 147.644 133.569 146.983C133.711 146.959 133.839 146.94 133.955 146.931C134.622 146.876 134.845 147.087 134.835 147.319C134.822 147.547 134.574 147.798 134.294 147.821L134.292 147.819Z" fill="white"/>
<path d="M161.734 141.663C161.446 141.004 161.362 140.784 161.372 140.783C161.389 140.782 161.722 141.514 161.734 141.663Z" fill="white"/>
<path d="M138.321 138.521C137.901 138.555 137.065 138.53 137.05 138.344C138.747 138.393 138.746 138.487 138.321 138.521Z" fill="white"/>
<path d="M75.3504 164.51C75.338 164.511 73.0323 162.903 71.9609 162.114C74.5043 163.901 75.3587 164.51 75.3504 164.51Z" fill="white"/>
<path d="M156.674 167.395C156.299 167.425 155.793 167.173 155.646 166.338C157.524 166.618 157.256 167.347 156.674 167.395Z" fill="white"/>
<path d="M143.996 130.939C143.958 130.943 143.87 130.727 143.703 130.137C143.644 129.417 143.652 129.157 143.689 129.154C143.739 129.15 143.842 129.595 143.918 130.04C143.994 130.486 144.047 130.933 143.993 130.938L143.996 130.939Z" fill="white"/>
<path d="M165.057 140.062C164.682 140.092 163.347 140.06 163.335 139.909C165.08 139.981 165.335 140.041 165.057 140.062Z" fill="white"/>
<path d="M140.425 161.876C139.733 161.475 139.793 161.13 139.991 161.114C140.153 161.101 140.41 161.307 140.425 161.876Z" fill="white"/>
<path d="M73.9335 144.271C73.8693 144.276 73.825 144.269 73.8228 144.242C74.4606 144.061 74.7489 143.992 74.8338 143.985C74.927 143.978 74.776 144.044 74.565 144.115C74.3518 144.185 74.0826 144.259 73.9335 144.271Z" fill="white"/>
<path d="M170.62 151.904C170.114 151.945 169.555 151.474 171.071 151.351C171.111 151.735 170.87 151.883 170.62 151.904Z" fill="white"/>
<path d="M171.558 142.954C170.996 142.999 170.955 142.214 170.488 142.108C170.556 141.97 170.638 141.907 170.725 141.9C171.05 141.873 171.46 142.62 171.603 142.948C171.587 142.949 171.572 142.953 171.558 142.954Z" fill="white"/>
<path d="M171.577 145.991C171.44 146.002 171.485 145.994 172.027 145.933C172.843 145.867 171.85 145.969 171.577 145.991Z" fill="white"/>
<path d="M52.2233 117.879C51.6972 117.922 50.9706 117.269 50.8076 115.272C53.3275 116.259 52.9937 117.816 52.2233 117.879Z" fill="white"/>
<path d="M69.1282 164.112C69.4346 161.427 69.6755 160.521 69.8101 160.51C70.0856 160.487 69.9484 164.046 69.1282 164.112Z" fill="white"/>
<path d="M110.713 130.003C110.452 130.025 109.958 129.767 109.191 128.949C109.366 128.881 109.53 128.847 109.682 128.834C110.239 128.789 110.629 129.069 110.816 129.368C111.005 129.665 110.982 129.981 110.715 130.003L110.713 130.003Z" fill="white"/>
<path d="M132.695 122.291C132.436 122.312 132.087 121.749 131.759 120.019C131.954 119.905 132.126 119.845 132.275 119.833C132.834 119.788 133.071 120.391 133.105 121.012C133.135 121.634 132.962 122.271 132.695 122.293L132.695 122.291Z" fill="white"/>
<path d="M119.882 149.567C119.631 149.587 119.491 149.403 119.479 149.208C119.467 149.014 119.584 148.808 119.849 148.787C119.878 148.784 119.907 148.784 119.939 148.786C120.145 148.813 120.159 149.136 120.171 149.464C120.062 149.527 119.966 149.558 119.881 149.565L119.882 149.567Z" fill="white"/>
<path d="M133.615 136.584C133.555 136.589 133.375 136.35 132.998 135.656C132.974 135.369 133 135.252 133.054 135.248C133.149 135.24 133.324 135.571 133.458 135.906C133.594 136.24 133.688 136.578 133.617 136.584L133.615 136.584Z" fill="white"/>
<path d="M163.432 160.635C163.606 159.726 163.697 159.421 163.731 159.418C163.789 159.413 163.649 160.411 163.432 160.635Z" fill="white"/>
<path d="M74.8346 166.102C74.1035 166.161 73.2804 165.604 73.1289 163.747C77.2491 163.752 76.1974 165.99 74.8346 166.102Z" fill="white"/>
<path d="M152.687 164.382C152.554 164.393 152.354 164.361 152.069 164.27C152.034 163.838 152.154 163.676 152.316 163.663C152.494 163.648 152.72 163.817 152.837 163.993C152.951 164.171 152.958 164.358 152.689 164.38L152.687 164.382Z" fill="white"/>
<path d="M65.4973 80.1364C65.8239 80.4382 65.6123 80.8783 65.2866 81.2186C64.9609 81.5588 64.5265 81.793 64.4121 81.6872C64.2961 81.58 64.4985 81.1314 65.4546 80.0969C65.4698 80.111 65.4835 80.1237 65.4958 80.135L65.4973 80.1364Z" fill="white"/>
<path d="M154.125 133.137C156.887 135.919 155.05 136.128 154.093 135.243C153.588 134.777 153.328 133.999 154.125 133.137Z" fill="white"/>
<path d="M154.123 133.136C152.859 134.504 152.125 134.671 151.819 134.389C151.24 133.853 152.235 131.683 154.123 133.136Z" fill="white"/>
<path d="M73.6935 76.0472C73.8888 76.2277 73.8693 76.4356 73.4531 76.6471C71.9887 76.1835 71.3076 75.8733 71.1047 75.6857C70.8452 75.446 71.3459 75.4002 71.9855 75.4828C72.6235 75.5639 73.3989 75.772 73.6934 76.0442L73.6935 76.0472Z" fill="white"/>
<path d="M147.059 149.368C147.27 149.562 147.373 149.867 147.288 150.308C146.375 150.273 145.506 150.433 144.631 150.568C143.633 149.541 146.209 148.582 147.057 149.366L147.059 149.368Z" fill="white"/>
<path d="M125.259 142.252C125.582 142.551 125.24 142.876 124.755 143.063C124.273 143.254 123.644 143.311 123.394 143.079C123.185 142.886 123.243 142.486 123.891 141.785C124.646 141.911 125.068 142.079 125.257 142.254L125.259 142.252Z" fill="white"/>
<path d="M120.244 142.479C118.588 144.271 117.469 144.389 117.022 143.975C116.327 143.334 117.243 141.412 120.244 142.479Z" fill="white"/>
<path d="M139.972 119.738C139.812 120.263 139.427 120.135 139.135 119.866C138.653 119.42 138.437 118.591 139.972 119.738Z" fill="white"/>
<path d="M90.5258 123.556C90.6586 123.679 90.8147 123.834 90.9957 124.024C90.8146 124.269 90.5486 124.159 90.3212 123.949C90.0893 123.734 89.8969 123.41 89.8848 123.255C89.8756 123.099 90.0421 123.109 90.5258 123.556Z" fill="white"/>
<path d="M94.1418 80.6961C94.6689 81.929 94.5618 82.0786 94.2917 81.829C93.7819 81.3579 92.6891 79.4665 94.1418 80.6961Z" fill="white"/>
<path d="M85.0932 127.158C84.0204 129.053 82.9267 129.006 82.2064 128.34C80.8131 127.053 80.8182 123.45 85.0932 127.158Z" fill="white"/>
<path d="M50.8301 106.336C49.7935 107.085 49.1232 107.041 48.8286 106.769C48.3083 106.288 48.9643 105.101 50.8301 106.336Z" fill="white"/>
<path d="M121.961 123.741C122.071 123.842 121.865 124.104 121.626 124.333C121.383 124.559 121.105 124.752 121.066 124.716C121.026 124.679 121.226 124.414 121.944 123.728C121.95 123.734 121.956 123.737 121.963 123.742L121.961 123.741Z" fill="white"/>
<path d="M109.48 163.238C110.279 164.03 111.107 164.826 110.422 165.47C110.069 164.725 108.678 163.87 109.48 163.238Z" fill="white"/>
<path d="M135.33 125.918C135.467 127.598 135.499 128.142 135.484 128.127C135.455 128.101 135.252 125.935 135.33 125.918Z" fill="white"/>
<path d="M107.24 96.793C107.448 96.9848 107.293 97.0334 107.04 96.9917C106.785 96.9516 106.433 96.8182 106.247 96.6462C106.1 96.5108 106.056 96.3509 106.239 96.1895C106.795 96.4663 107.101 96.6617 107.242 96.7914L107.24 96.793Z" fill="white"/>
<path d="M115.236 141.263C115.515 141.521 115.301 141.958 113.726 141.862C114.103 140.919 114.943 140.992 115.236 141.263Z" fill="white"/>
<path d="M128.208 120.745C128.221 120.757 128.042 121.043 127.505 121.833C127.234 122.156 127.124 122.275 127.112 122.264C127.091 122.244 127.357 121.857 127.633 121.479C127.909 121.102 128.192 120.731 128.208 120.745Z" fill="white"/>
<path d="M136.472 102.399C137.624 105.515 137.091 105.711 136.408 105.08C135.797 104.515 135.068 103.293 135.303 102.895C135.464 103.143 135.608 103.324 135.736 103.442C136.176 103.848 136.421 103.501 136.47 102.397L136.472 102.399Z" fill="white"/>
<path d="M119.494 116.991C119.698 117.18 119.76 117.539 119.368 118.089C119.254 118.001 119.154 117.919 119.068 117.84C118.577 117.386 118.581 117.079 118.758 116.93C118.935 116.785 119.288 116.797 119.494 116.988L119.494 116.991Z" fill="white"/>
<path d="M96.3898 100.955C96.0988 101.613 95.9942 101.824 95.9866 101.817C95.9743 101.805 96.2884 101.065 96.3898 100.955Z" fill="white"/>
<path d="M109.921 120.317C110.231 120.603 110.778 121.236 110.651 121.373C109.539 120.09 109.608 120.027 109.921 120.317Z" fill="white"/>
<path d="M171.671 149.086C171.68 149.094 172.057 151.88 172.201 153.203C171.795 150.121 171.665 149.08 171.671 149.086Z" fill="white"/>
<path d="M104.467 77.2575C104.743 77.5127 104.9 78.0562 104.385 78.7299C103.319 77.1577 104.038 76.8611 104.467 77.2575Z" fill="white"/>
<path d="M100.5 121.271C100.528 121.296 100.429 121.507 100.107 122.029C99.6174 122.56 99.42 122.73 99.3926 122.705C99.356 122.671 99.6141 122.294 99.8906 121.936C100.167 121.579 100.461 121.237 100.5 121.274L100.5 121.271Z" fill="white"/>
<path d="M92.9618 99.5919C93.238 99.8472 94.1174 100.852 94.0146 100.963C92.8869 99.6301 92.7587 99.4014 92.9618 99.5919Z" fill="white"/>
<path d="M107.134 81.9035C107.306 82.6843 107.012 82.8734 106.866 82.738C106.747 82.628 106.725 82.2998 107.134 81.9035Z" fill="white"/>
<path d="M157.73 163.827C157.778 163.87 157.803 163.907 157.784 163.927C157.219 163.58 156.973 163.415 156.911 163.357C156.842 163.294 156.993 163.36 157.188 163.467C157.384 163.577 157.62 163.725 157.73 163.827Z" fill="white"/>
<path d="M97.9137 87.482C98.286 87.8262 98.3183 88.5566 97.2012 87.5242C97.457 87.2352 97.729 87.3114 97.9137 87.482Z" fill="white"/>
<path d="M90.6905 92.8488C91.1041 93.231 90.5536 93.7929 90.7922 94.2083C90.6441 94.2522 90.542 94.2341 90.4779 94.1749C90.2383 93.9535 90.5115 93.1466 90.6555 92.8193C90.6677 92.8306 90.6798 92.8389 90.6905 92.8488Z" fill="white"/>
<path d="M92.9142 90.7795C93.0149 90.8726 92.9785 90.8446 92.5674 90.4873C91.9662 89.9316 92.7128 90.5934 92.9142 90.7795Z" fill="white"/>
<path d="M125.465 158.031C125.853 158.389 125.864 159.366 124.504 160.838C123.525 158.315 124.897 157.506 125.465 158.031Z" fill="white"/>
<path d="M175.59 153.936C173.406 155.528 172.575 155.964 172.476 155.872C172.273 155.685 174.985 153.378 175.59 153.936Z" fill="white"/>
<path d="M122.335 146.406C122.528 146.584 122.673 147.122 122.59 148.24C122.42 148.157 122.284 148.06 122.173 147.957C121.762 147.577 121.705 147.101 121.799 146.76C121.889 146.421 122.137 146.223 122.334 146.405L122.335 146.406Z" fill="white"/>
<path d="M101.781 135.444C101.971 135.62 101.793 136.257 100.742 137.67C100.526 137.604 100.365 137.517 100.255 137.416C99.8434 137.035 100.127 136.452 100.562 136.007C100.999 135.564 101.585 135.26 101.782 135.442L101.781 135.444Z" fill="white"/>
<path d="M130.533 126.417C130.717 126.587 130.676 126.815 130.541 126.955C130.406 127.096 130.176 127.149 129.98 126.968C129.959 126.949 129.939 126.927 129.919 126.903C129.799 126.733 130.028 126.504 130.261 126.273C130.381 126.311 130.469 126.36 130.531 126.418L130.533 126.417Z" fill="white"/>
<path d="M111.68 125.092C111.724 125.133 111.67 125.428 111.415 126.175C111.219 126.387 111.116 126.447 111.076 126.41C111.006 126.345 111.131 125.992 111.287 125.667C111.441 125.341 111.626 125.043 111.678 125.091L111.68 125.092Z" fill="white"/>
<path d="M96.2629 80.3515C95.4758 80.8388 95.189 80.9777 95.1646 80.9551C95.1219 80.9156 95.951 80.3429 96.2629 80.3515Z" fill="white"/>
<path d="M164.632 151.848C165.17 152.346 165.317 153.329 164.053 154.697C161.268 151.661 163.628 150.92 164.632 151.848Z" fill="white"/>
<path d="M119.237 92.2389C119.335 92.3292 119.447 92.4982 119.573 92.7696C119.279 93.088 119.078 93.109 118.959 92.999C118.828 92.8777 118.799 92.5967 118.849 92.392C118.903 92.1872 119.036 92.0557 119.234 92.239L119.237 92.2389Z" fill="white"/>
<defs>
<filter id="filter0_d" x="0.873047" y="0.342323" width="230" height="230" filterUnits="userSpaceOnUse" color-interpolation-filters="sRGB">
<feFlood flood-opacity="0" result="BackgroundImageFix"/>
<feColorMatrix in="SourceAlpha" type="matrix" values="0 0 0 0 0 0 0 0 0 0 0 0 0 0 0 0 0 0 127 0"/>
<feOffset/>
<feGaussianBlur stdDeviation="20"/>
<feColorMatrix type="matrix" values="0 0 0 0 0 0 0 0 0 0 0 0 0 0 0 0 0 0 0.04 0"/>
<feBlend mode="normal" in2="BackgroundImageFix" result="effect1_dropShadow"/>
<feBlend mode="normal" in="SourceGraphic" in2="effect1_dropShadow" result="shape"/>
</filter>
<filter id="filter1_d" x="15.873" y="25.3423" width="230" height="230" filterUnits="userSpaceOnUse" color-interpolation-filters="sRGB">
<feFlood flood-opacity="0" result="BackgroundImageFix"/>
<feColorMatrix in="SourceAlpha" type="matrix" values="0 0 0 0 0 0 0 0 0 0 0 0 0 0 0 0 0 0 127 0"/>
<feOffset dx="15" dy="25"/>
<feGaussianBlur stdDeviation="20"/>
<feColorMatrix type="matrix" values="0 0 0 0 0 0 0 0 0 0 0 0 0 0 0 0 0 0 0.06 0"/>
<feBlend mode="normal" in2="BackgroundImageFix" result="effect1_dropShadow"/>
<feBlend mode="normal" in="SourceGraphic" in2="effect1_dropShadow" result="shape"/>
</filter>
</defs>
</svg>
